<?xml version="1.0" encoding="UTF-8"?>
<!DOCTYPE svg PUBLIC "-//W3C//DTD SVG 1.1//EN" "http://www.w3.org/Graphics/SVG/1.1/DTD/svg11.dtd">
<!-- Creator: CorelDRAW -->
<svg xmlns="http://www.w3.org/2000/svg" xml:space="preserve" width="220px" height="46px" style="shape-rendering:geometricPrecision; text-rendering:geometricPrecision; image-rendering:optimizeQuality; fill-rule:evenodd; clip-rule:evenodd"
viewBox="0 0 28.5774 5.99207"
 xmlns:xlink="http://www.w3.org/1999/xlink">
 <defs>
  <style type="text/css">
   <![CDATA[
    .fil1 {fill:#24A87C;fill-rule:nonzero}
    .fil0 {fill:#33CC99;fill-rule:nonzero}
   ]]>
  </style>
 </defs>
 <g id="Layer_x0020_1">
  <metadata id="CorelCorpID_0Corel-Layer"/>
  <path class="fil0" d="M0.564902 0.758828l0.0101259 0c0.0616759,0.0648978 0.44109,0.49218 0.812986,0.861314 0.35548,0.352105 0.793041,0.799792 1.00768,1.00476 0.037742,0.037742 0.0787058,0.0751771 0.116294,0.0751771 0.0306845,0 0.0444925,-0.0306845 0.0444925,-0.105862l0.0374351 -2.15666c0.00352872,-0.191471 0.0308379,-0.263273 0.126574,-0.290582 0.0411173,-0.0102793 0.0684265,-0.0102793 0.102486,-0.0102793 0.0411173,0 0.0615225,-0.0102793 0.0615225,-0.0306845 0,-0.0274626 -0.0340598,-0.0308379 -0.0785524,-0.0308379 -0.167537,0 -0.297333,0.0102793 -0.334921,0.0102793 -0.0718018,0 -0.235811,-0.0102793 -0.413014,-0.0102793 -0.0512431,0 -0.0888317,0.0033753 -0.0888317,0.0308379 0,0.0204052 0.0136546,0.0306845 0.0546184,0.0306845 0.0478678,0 0.129949,0 0.180578,0.0205586 0.0820811,0.0342132 0.112766,0.099111 0.116294,0.307612l0.0342132 1.53469 -0.0171833 0c-0.0581472,-0.0547719 -0.519029,-0.546951 -0.751464,-0.779387 -0.498317,-0.495555 -1.01781,-1.05279 -1.05892,-1.09712 -0.0586074,-0.0615225 -0.0894454,-0.106015 -0.127034,-0.106015 -0.0340598,0 -0.0444925,0.0478678 -0.0444925,0.116294l-0.0306845 2.02334c-0.00352872,0.297333 -0.0170299,0.396444 -0.105862,0.423753 -0.0478678,0.013808 -0.10939,0.0171833 -0.153883,0.0171833 -0.0340598,0 -0.0547719,0.00690402 -0.0547719,0.0273092 0,0.0308379 0.0308379,0.0342132 0.0753305,0.0342132 0.177663,0 0.338297,-0.0102793 0.369135,-0.0102793 0.065358,0 0.202211,0.0102793 0.424367,0.0102793 0.0478678,0 0.0785524,-0.00690402 0.0785524,-0.0342132 0,-0.0204052 -0.0205586,-0.0273092 -0.0581472,-0.0273092 -0.0546184,0 -0.11967,-0.0033753 -0.177663,-0.0239339 -0.068273,-0.0239339 -0.112766,-0.112766 -0.11967,-0.379414l-0.0375885 -1.43542 0 0z"/>
  <path id="_1" class="fil0" d="M4.61725 2.70699c0.868218,0 1.41502,-0.6186 1.41502,-1.40136 0,-0.782762 -0.529615,-1.27832 -1.3808,-1.27832 -1.02532,0 -1.41164,0.755299 -1.41164,1.33984 0,0.604945 0.396597,1.33984 1.37743,1.33984l0 0zm0.143757 -0.170913c-0.656342,0 -1.04941,-0.563828 -1.04941,-1.27494 0,-0.851035 0.447687,-1.06966 0.840909,-1.06966 0.560453,0 1.00139,0.474996 1.00139,1.24057 0,0.987888 -0.553702,1.10403 -0.792888,1.10403l0 0z"/>
  <path id="_2" class="fil0" d="M7.17404 1.66801c0,0.314363 0,0.584387 -0.0171833,0.72799 -0.0102793,0.099111 -0.0308379,0.174288 -0.099111,0.187943 -0.0306845,0.00690402 -0.0718018,0.0136546 -0.123045,0.0136546 -0.0411173,0 -0.0547719,0.0102793 -0.0547719,0.0273092 0,0.0239339 0.0239339,0.0342132 0.0684265,0.0342132 0.1367,0 0.351951,-0.0102793 0.430657,-0.0102793 0.0957357,0 0.311141,0.0102793 0.536672,0.0102793 0.0375885,0 0.0648978,-0.0102793 0.0648978,-0.0342132 0,-0.0170299 -0.0171833,-0.0273092 -0.0547719,-0.0273092 -0.0512431,0 -0.12642,-0.00675059 -0.174288,-0.0136546 -0.102486,-0.0136546 -0.123045,-0.0888317 -0.133324,-0.184567 -0.0170299,-0.146825 -0.0170299,-0.417003 -0.0170299,-0.731365l0 -1.40136 0.430657 0.0102793c0.304084,0.00675059 0.396444,0.102486 0.403348,0.191318l0.0033753 0.0375885c0.00352872,0.0512431 0.0102793,0.0684265 0.0375885,0.0684265 0.0205586,0 0.0273092,-0.0205586 0.0306845,-0.0547719 0,-0.0888317 0.0104327,-0.324796 0.0104327,-0.396444 0,-0.0512431 -0.00352872,-0.0718018 -0.0273092,-0.0718018 -0.013808,0 -0.0411173,0.00690402 -0.0923604,0.0171833 -0.0512431,0.00690402 -0.126574,0.0170299 -0.235964,0.0170299l-1.35349 0c-0.112766,0 -0.242561,-0.00690402 -0.341826,-0.0170299 -0.0854564,-0.00690402 -0.119516,-0.0411173 -0.146825,-0.0411173 -0.0205586,0 -0.0308379,0.0205586 -0.0409638,0.0648978 -0.00690402,0.0274626 -0.0718018,0.33845 -0.0718018,0.393069 0,0.037742 0.00675059,0.0547719 0.0306845,0.0547719 0.0205586,0 0.0308379,-0.0136546 0.037742,-0.0409638 0.00675059,-0.0273092 0.0237805,-0.0684265 0.0579937,-0.11967 0.0512431,-0.0751771 0.133324,-0.0923604 0.331546,-0.099111l0.509363 -0.0136546 0 1.40136 0 0z"/>
  <path id="_3" class="fil0" d="M9.84006 1.76712c0.0170299,0 0.0273092,0.00675059 0.0340598,0.0239339l0.273399 0.724615c0.0171833,0.0409638 -0.00675059,0.0716483 -0.0306845,0.0785524 -0.0340598,0.0033753 -0.0478678,0.0102793 -0.0478678,0.0306845 0,0.0239339 0.0411173,0.0239339 0.10264,0.0274626 0.273399,0.00675059 0.522864,0.00675059 0.645909,0.00675059 0.12642,0 0.157258,-0.00675059 0.157258,-0.0342132 0,-0.0237805 -0.0171833,-0.0273092 -0.0444925,-0.0273092 -0.0409638,0 -0.0923604,-0.0033753 -0.143604,-0.0136546 -0.0716483,-0.0204052 -0.170913,-0.0678128 -0.300708,-0.374198 -0.218781,-0.517955 -0.765732,-1.91241 -0.84766,-2.10036 -0.0342132,-0.0785524 -0.0547719,-0.10939 -0.0854564,-0.10939 -0.0342132,0 -0.0547719,0.0375885 -0.0955823,0.1367l-0.858092 2.14654c-0.068273,0.170913 -0.133171,0.287054 -0.290429,0.307612 -0.0273092,0.0033753 -0.0751771,0.00690402 -0.105862,0.00690402 -0.0273092,0 -0.0409638,0.00675059 -0.0409638,0.0273092 0,0.0273092 0.0204052,0.0342132 0.0648978,0.0342132 0.17751,0 0.365606,-0.0104327 0.403195,-0.0104327 0.106015,0 0.252994,0.0104327 0.362384,0.0104327 0.0374351,0 0.0579937,-0.00690402 0.0579937,-0.0342132 0,-0.0205586 -0.0102793,-0.0273092 -0.0512431,-0.0273092l-0.0512431 0c-0.106015,0 -0.1367,-0.0444925 -0.1367,-0.106168 0,-0.0408104 0.0170299,-0.122891 0.0512431,-0.208348l0.184567 -0.488804c0.00690402,-0.0205586 0.0136546,-0.0273092 0.0308379,-0.0273092l0.76205 0 0.000153423 0zm-0.69393 -0.170913c-0.0136546,0 -0.0170299,-0.0102793 -0.0136546,-0.0239339l0.314516 -0.840756c0.0033753,-0.013808 0.0102793,-0.0308379 0.0204052,-0.0308379 0.0102793,0 0.013808,0.0170299 0.0171833,0.0308379l0.307612 0.844131c0.0033753,0.0102793 0,0.0205586 -0.0171833,0.0205586l-0.628879 0 0 0z"/>
  <path id="_4" class="fil0" d="M11.3336 1.66801c0,0.314363 0,0.584387 -0.0170299,0.72799 -0.0136546,0.099111 -0.0308379,0.174288 -0.099111,0.187943 -0.0306845,0.00690402 -0.0718018,0.0136546 -0.123045,0.0136546 -0.0411173,0 -0.0547719,0.0102793 -0.0547719,0.0273092 0,0.0239339 0.0239339,0.0342132 0.0684265,0.0342132 0.1367,0 0.351951,-0.0102793 0.417003,-0.0102793 0.0512431,0 0.304084,0.0102793 0.502306,0.0102793 0.0444925,0 0.0684265,-0.0102793 0.0684265,-0.0342132 0,-0.0170299 -0.0136546,-0.0273092 -0.0411173,-0.0273092 -0.0409638,0 -0.116141,-0.00675059 -0.167384,-0.0136546 -0.102486,-0.0136546 -0.123198,-0.0888317 -0.133324,-0.187943 -0.0171833,-0.143604 -0.0171833,-0.413627 -0.0171833,-0.731519l0 -0.0478678c0,-0.0204052 0.0102793,-0.0273092 0.0273092,-0.0273092l0.297486 0.00690402c0.0239339,0 0.0444925,0.0033753 0.0615225,0.0239339 0.0443391,0.0512431 0.201597,0.283678 0.338297,0.471621 0.191471,0.26312 0.321267,0.423907 0.468399,0.502459 0.0888317,0.0478678 0.174288,0.0648978 0.365606,0.0648978l0.324796 0c0.0409638,0 0.0648978,-0.00675059 0.0648978,-0.0342132 0,-0.0170299 -0.0136546,-0.0273092 -0.0411173,-0.0273092 -0.0273092,0 -0.0579937,-0.0033753 -0.0955823,-0.0102793 -0.0512431,-0.0102793 -0.191471,-0.0342132 -0.382789,-0.232435 -0.201751,-0.211877 -0.437561,-0.516114 -0.741645,-0.898749 0.345201,-0.280456 0.451062,-0.512892 0.451062,-0.765732 0,-0.22906 -0.1367,-0.403348 -0.232435,-0.468246 -0.184567,-0.12642 -0.413627,-0.146979 -0.628879,-0.146979 -0.106015,0 -0.365606,0.0102793 -0.4819,0.0102793 -0.0718018,0 -0.287054,-0.0102793 -0.468246,-0.0102793 -0.0512431,0 -0.0751771,0.00675059 -0.0751771,0.0308379 0,0.0239339 0.0204052,0.0306845 0.0579937,0.0306845 0.0478678,0 0.106015,0.0033753 0.133324,0.0102793 0.112766,0.0239339 0.140075,0.0785524 0.146979,0.194847 0.00675059,0.10939 0.00675059,0.204973 0.00675059,0.724615l0 0.60157 0.000153423 0zm0.403348 -1.37068c0,-0.0273092 0.00675059,-0.0409638 0.0306845,-0.0477144 0.0342132,-0.0104327 0.0957357,-0.013808 0.181192,-0.013808 0.201751,0 0.523018,0.140075 0.523018,0.625504 0,0.280303 -0.099111,0.437561 -0.201597,0.512738 -0.0616759,0.0444925 -0.106015,0.0579937 -0.242868,0.0579937 -0.0854564,0 -0.187943,-0.0101259 -0.259744,-0.0340598 -0.0239339,-0.0102793 -0.0306845,-0.0239339 -0.0306845,-0.0615225l0 -1.03898 0 -0.000153423z"/>
  <path id="_5" class="fil0" d="M14.2287 2.05417c0,0.0547719 0,0.198222 -0.0101259,0.341826 -0.00690402,0.0989576 -0.037742,0.174288 -0.106168,0.187943 -0.0306845,0.00675059 -0.0716483,0.0136546 -0.119516,0.0136546 -0.0375885,0 -0.0547719,0.0102793 -0.0547719,0.0273092 0,0.0273092 0.0273092,0.0342132 0.0753305,0.0342132 0.126267,0 0.341672,-0.0102793 0.427128,-0.0102793 0.0923604,0 0.307612,0.0102793 0.523018,0.0102793 0.0443391,0 0.0716483,-0.0102793 0.0716483,-0.0342132 0,-0.0171833 -0.0170299,-0.0273092 -0.0546184,-0.0273092 -0.0478678,0 -0.123198,-0.00690402 -0.170913,-0.0136546 -0.10264,-0.0136546 -0.133324,-0.0889851 -0.140075,-0.187943 -0.0102793,-0.143604 -0.0102793,-0.287207 -0.0102793,-0.341826l0 -0.280303c0,-0.112766 0,-0.218781 0.0512431,-0.341826 0.0615225,-0.146979 0.540047,-0.950146 0.652813,-1.08685 0.0751771,-0.0923604 0.112766,-0.133324 0.184567,-0.167537 0.0512431,-0.0273092 0.116141,-0.0411173 0.150354,-0.0411173 0.0375885,0 0.0648978,-0.0101259 0.0648978,-0.0340598 0,-0.0205586 -0.0237805,-0.0273092 -0.0615225,-0.0273092 -0.0648978,0 -0.290429,0.0102793 -0.365606,0.0102793 -0.0992644,0 -0.208501,-0.0102793 -0.321267,-0.0102793 -0.0411173,0 -0.0581472,0.00675059 -0.0581472,0.0308379 0,0.0204052 0.0308379,0.0273092 0.0615225,0.0340598 0.0581472,0.0136546 0.0716483,0.0513966 0.0716483,0.0854564 0,0.0444925 -0.0135012,0.10264 -0.0477144,0.177817 -0.0478678,0.105862 -0.478678,0.857786 -0.512738,0.939867 -0.0546184,-0.0955823 -0.533297,-0.919462 -0.581011,-1.02195 -0.0239339,-0.0478678 -0.0411173,-0.0888317 -0.0411173,-0.116294 0,-0.0273092 0.0171833,-0.0546184 0.0478678,-0.0615225 0.0512431,-0.0135012 0.0751771,-0.0170299 0.0751771,-0.0374351 0,-0.0205586 -0.0170299,-0.0308379 -0.0512431,-0.0308379 -0.153883,0 -0.293958,0.0102793 -0.365606,0.0102793 -0.112766,0 -0.369135,-0.0102793 -0.430657,-0.0102793 -0.0411173,0 -0.0648978,0.0102793 -0.0648978,0.0308379 0,0.0239339 0.0239339,0.0305311 0.0512431,0.0305311 0.0411173,0 0.099111,0.020712 0.14345,0.0444925 0.0648978,0.037742 0.150354,0.123198 0.235811,0.249619 0.11967,0.177663 0.577636,0.929587 0.60157,0.984359 0.0443391,0.099111 0.0785524,0.174288 0.0785524,0.358855l0 0.280303 0.000153423 0z"/>
  <path id="_6" class="fil0" d="M16.4469 2.70699c0.181192,0 0.372663,-0.0308379 0.543576,-0.140075 0.245936,-0.160787 0.321267,-0.396444 0.321267,-0.594666 0,-0.324796 -0.146979,-0.560606 -0.560606,-0.871747l-0.0957357 -0.0718018c-0.283678,-0.215252 -0.362231,-0.334921 -0.362231,-0.492026 0,-0.205126 0.153883,-0.352105 0.406723,-0.352105 0.222156,0 0.321267,0.102486 0.37251,0.167537 0.0718018,0.0888317 0.0888317,0.194693 0.0888317,0.225531 0,0.0411173 0.0102793,0.0615225 0.0342132,0.0615225 0.0273092,0 0.0375885,-0.0273092 0.0375885,-0.102486 0,-0.266648 0.0136546,-0.365759 0.0136546,-0.410099 0,-0.0239339 -0.0171833,-0.0342132 -0.0478678,-0.0411173 -0.0888317,-0.0239339 -0.232282,-0.0581472 -0.454591,-0.0581472 -0.474996,0 -0.789513,0.270177 -0.789513,0.646062 0,0.276774 0.129796,0.516114 0.505834,0.810071l0.157258 0.123045c0.283678,0.222156 0.334921,0.379414 0.334921,0.546798 0,0.181192 -0.150508,0.389693 -0.457966,0.389693 -0.21203,0 -0.413627,-0.092207 -0.488804,-0.345201 -0.0170299,-0.0579937 -0.0308379,-0.129949 -0.0308379,-0.174288 0,-0.0273092 -0.0033753,-0.0581472 -0.0342132,-0.0581472 -0.0273092,0 -0.0374351,0.0375885 -0.0408104,0.0889851 -0.00352872,0.0546184 -0.0171833,0.259744 -0.0171833,0.447687 0,0.0750236 0.0102793,0.092207 0.0648978,0.116141 0.146979,0.0650512 0.300862,0.0888317 0.499084,0.0888317l0 0z"/>
  <path id="_7" class="fil0" d="M19.13 2.70699c0.868218,0 1.41502,-0.6186 1.41502,-1.40136 0,-0.782762 -0.529615,-1.27832 -1.3808,-1.27832 -1.02532,0 -1.41164,0.755299 -1.41164,1.33984 0,0.604945 0.396597,1.33984 1.37743,1.33984l0 0zm0.143757 -0.170913c-0.656495,0 -1.04941,-0.563828 -1.04941,-1.27494 0,-0.851035 0.447687,-1.06966 0.840756,-1.06966 0.560606,0 1.00154,0.474996 1.00154,1.24057 0,0.987888 -0.553856,1.10403 -0.792888,1.10403l0 0z"/>
  <path id="_8" class="fil0" d="M21.69 1.39108c0,-0.0239339 0.00675059,-0.0306845 0.0239339,-0.0306845 0.0581472,0 0.420378,0 0.505834,0.0102793 0.105862,0.0136546 0.157258,0.0751771 0.174288,0.122891 0.013808,0.0411173 0.0205586,0.0820811 0.0205586,0.106168 0,0.0237805 0.00675059,0.0477144 0.0273092,0.0477144 0.0342132,0 0.0342132,-0.0340598 0.0342132,-0.0648978 0,-0.0239339 0.00675059,-0.181192 0.0136546,-0.249465 0.0101259,-0.106015 0.0273092,-0.191471 0.0273092,-0.21203 0,-0.0204052 -0.00690402,-0.0306845 -0.0205586,-0.0306845 -0.0204052,0 -0.0273092,0.0136546 -0.0443391,0.0342132 -0.0342132,0.0444925 -0.0820811,0.0579937 -0.146979,0.0615225 -0.0478678,0.0033753 -0.0957357,0.0033753 -0.153883,0.0033753l-0.437408 0.00352872c-0.0205586,0 -0.0240873,-0.0104327 -0.0240873,-0.0308379l0 -0.85441c0,-0.037742 0.0102793,-0.0480213 0.0308379,-0.0480213l0.526393 0.0102793c0.129949,0.00352872 0.201597,0.0547719 0.225531,0.102486 0.0205586,0.0480213 0.0205586,0.10264 0.0205586,0.129949 0.0033753,0.0375885 0.0102793,0.0547719 0.0340598,0.0547719 0.0240873,0 0.0308379,-0.0204052 0.0342132,-0.0480213 0.00690402,-0.0408104 0.013808,-0.242561 0.0171833,-0.276774 0.0101259,-0.0888317 0.0273092,-0.129796 0.0273092,-0.153883 0,-0.0170299 -0.0102793,-0.0306845 -0.0240873,-0.0306845 -0.0170299,0 -0.0340598,0.0136546 -0.0546184,0.0205586 -0.0340598,0.0101259 -0.0751771,0.0101259 -0.140075,0.0136546 -0.0785524,0.0033753 -0.772483,0.0033753 -0.902278,0.0033753 -0.0480213,0 -0.126574,-0.0033753 -0.215405,-0.00690402 -0.0888317,0 -0.187943,-0.00322187 -0.276774,-0.00322187 -0.0512431,0 -0.0785524,0.00675059 -0.0785524,0.0340598 0,0.0205586 0.0239339,0.0273092 0.0579937,0.0273092 0.0478678,0 0.106015,0.0033753 0.133324,0.0102793 0.112766,0.0239339 0.140075,0.0785524 0.146979,0.194847 0.00675059,0.10939 0.00675059,0.205126 0.00675059,0.724615l0 0.60157c0,0.328171 0,0.58454 -0.0170299,0.72799 -0.0136546,0.099111 -0.0308379,0.174288 -0.099111,0.187943 -0.0308379,0.00690402 -0.0718018,0.013808 -0.123045,0.013808 -0.037742,0 -0.0512431,0.0101259 -0.0512431,0.0273092 0,0.0273092 0.0239339,0.0342132 0.0716483,0.0342132 0.129949,0 0.345201,-0.0104327 0.434032,-0.0104327 0.0889851,0 0.304237,0.0104327 0.519642,0.0104327 0.0512431,0 0.0751771,-0.0104327 0.0751771,-0.0342132 0,-0.0171833 -0.0136546,-0.0273092 -0.0581472,-0.0273092 -0.0478678,0 -0.123045,-0.00690402 -0.170913,-0.013808 -0.102486,-0.0136546 -0.122891,-0.0888317 -0.133171,-0.187943 -0.0171833,-0.14345 -0.0171833,-0.399819 -0.0171833,-0.72799l0 -0.276774 0.000153423 -0.000153423z"/>
  <path id="_9" class="fil0" d="M23.8399 1.66801c0,0.314363 0,0.584387 -0.0171833,0.72799 -0.0101259,0.099111 -0.0306845,0.174288 -0.099111,0.187943 -0.0306845,0.00690402 -0.0718018,0.0136546 -0.123045,0.0136546 -0.0411173,0 -0.0546184,0.0102793 -0.0546184,0.0273092 0,0.0239339 0.0239339,0.0342132 0.0684265,0.0342132 0.1367,0 0.351951,-0.0102793 0.430657,-0.0102793 0.0955823,0 0.310988,0.0102793 0.536519,0.0102793 0.0375885,0 0.0648978,-0.0102793 0.0648978,-0.0342132 0,-0.0170299 -0.0171833,-0.0273092 -0.0547719,-0.0273092 -0.0512431,0 -0.12642,-0.00675059 -0.174135,-0.0136546 -0.10264,-0.0136546 -0.123198,-0.0888317 -0.133478,-0.184567 -0.0170299,-0.146825 -0.0170299,-0.417003 -0.0170299,-0.731365l0 -1.40136 0.430657 0.0102793c0.304237,0.00675059 0.396444,0.102486 0.403348,0.191318l0.00352872 0.0375885c0.0033753,0.0512431 0.0101259,0.0684265 0.0374351,0.0684265 0.0205586,0 0.0273092,-0.0205586 0.0308379,-0.0547719 0,-0.0888317 0.0102793,-0.324796 0.0102793,-0.396444 0,-0.0512431 -0.00352872,-0.0718018 -0.0273092,-0.0718018 -0.013808,0 -0.0411173,0.00690402 -0.0923604,0.0171833 -0.0512431,0.00690402 -0.126574,0.0170299 -0.235811,0.0170299l-1.35365 0c-0.112766,0 -0.242561,-0.00690402 -0.341672,-0.0170299 -0.0854564,-0.00690402 -0.11967,-0.0411173 -0.146979,-0.0411173 -0.0205586,0 -0.0308379,0.0205586 -0.0409638,0.0648978 -0.00690402,0.0274626 -0.0718018,0.33845 -0.0718018,0.393069 0,0.037742 0.00690402,0.0547719 0.0306845,0.0547719 0.020712,0 0.0308379,-0.0136546 0.037742,-0.0409638 0.00675059,-0.0273092 0.0239339,-0.0684265 0.0579937,-0.11967 0.0512431,-0.0751771 0.133324,-0.0923604 0.331546,-0.099111l0.509363 -0.0136546 0 1.40136 0 0z"/>
  <path id="_10" class="fil0" d="M26.8305 2.57366c0.0325256,0.08024 0.0428049,0.104174 0.0648978,0.104174 0.0239339,0 0.0342132,-0.0273092 0.0787058,-0.12642 0.0375885,-0.0854564 0.117829,-0.271711 0.227219,-0.521177 0.0923604,-0.210036 0.138541,-0.302396 0.205126,-0.463183 0.0461802,-0.109237 0.0716483,-0.138234 0.0938946,-0.153576 0.0308379,-0.0205586 0.0667388,-0.0205586 0.0839222,-0.0205586 0.0170299,0 0.0273092,-0.0033753 0.0273092,-0.0153423 0,-0.011967 -0.013808,-0.0153423 -0.0360543,-0.0153423 -0.0512431,0 -0.131483,0.00506295 -0.160633,0.00506295 -0.0222463,0 -0.0938946,-0.00506295 -0.179351,-0.00506295 -0.0325256,0 -0.0478678,0.0033753 -0.0478678,0.0170299 0,0.011967 0.0136546,0.0136546 0.0289969,0.0136546 0.0222463,0 0.0478678,0.00168765 0.0684265,0.00859166 0.0153423,0.00506295 0.0220929,0.0187176 0.0220929,0.0323722 0,0.0153423 -0.00675059,0.0411173 -0.0153423,0.0632101 -0.0409638,0.112766 -0.26312,0.663092 -0.336609,0.851188l-0.00675059 0 -0.293958 -0.775858c-0.0239339,-0.0615225 -0.0394296,-0.10939 -0.0394296,-0.131637 0,-0.0153423 0.00506295,-0.0273092 0.0171833,-0.0359009 0.0136546,-0.0102793 0.0392762,-0.011967 0.0667388,-0.011967 0.0153423,0 0.0254681,-0.0033753 0.0254681,-0.0153423 0,-0.011967 -0.0187176,-0.0153423 -0.0392762,-0.0153423 -0.0854564,0 -0.167537,0.00506295 -0.210189,0.00506295 -0.0598348,0 -0.157105,-0.00506295 -0.247777,-0.00506295 -0.0254681,0 -0.0443391,0.00168765 -0.0443391,0.0153423 0,0.0102793 0.00506295,0.0153423 0.0205586,0.0153423 0.0136546,0 0.0409638,0 0.066432,0.00675059 0.0615225,0.0171833 0.0906727,0.0360543 0.129949,0.129949l0.430657 1.04419 0 -0.000153423z"/>
  <path id="_11" class="fil0" d="M27.5039 2.64884c0.0647443,0 0.105862,-0.0495555 0.105862,-0.109237 0,-0.0599882 -0.0461802,-0.0992644 -0.104174,-0.0992644 -0.0734894,0 -0.104327,0.0615225 -0.104327,0.104327 0,0.0478678 0.0308379,0.104174 0.10264,0.104174z"/>
  <path id="_12" class="fil0" d="M28.1601 2.13457c0.00168765,0.164009 -0.00184107,0.3093 -0.00859166,0.384477 -0.00521637,0.0547719 -0.0136546,0.0785524 -0.0684265,0.0905193 -0.0306845,0.00690402 -0.117982,0.011967 -0.1367,0.011967 -0.00675059,0 -0.0136546,0.00506295 -0.0136546,0.0170299 0,0.011967 0.0102793,0.0154957 0.0289969,0.0154957 0.109544,0 0.252994,-0.00506295 0.29227,-0.00506295 0.0461802,0 0.15557,0.00506295 0.285366,0.00506295 0.018871,0 0.0273092,-0.00352872 0.0273092,-0.0154957 0,-0.0118135 -0.00843824,-0.0170299 -0.0153423,-0.0170299 -0.0136546,0 -0.087144,-0.00506295 -0.112766,-0.0102793 -0.0547719,-0.011967 -0.0632101,-0.0375885 -0.068273,-0.092207 -0.00690402,-0.0753305 -0.00690402,-0.220468 -0.00690402,-0.384477l0 -0.316204c0,-0.261432 0.0102793,-0.430657 0.0102793,-0.444312 0,-0.0171833 -0.00521637,-0.0359009 -0.0205586,-0.0359009 -0.0136546,0 -0.0289969,0.011967 -0.0443391,0.0220929 -0.0599882,0.0444925 -0.388006,0.259898 -0.39491,0.263273 -0.00843824,0.00506295 -0.0170299,0.0136546 -0.0170299,0.0239339 0,0.0102793 0.00859166,0.0187176 0.0136546,0.0187176 0.00690402,0 0.0153423,-0.0033753 0.0239339,-0.00675059 0.0375885,-0.0154957 0.16585,-0.0820811 0.198222,-0.0820811 0.0256216,0 0.0256216,0.0205586 0.0256216,0.0615225 0,0.0581472 0,0.131637 0,0.223997l0.00184107 0.271711 0 0z"/>
  <polygon class="fil1" points="-0,5.97151 -0,4.83465 0.22277,4.83465 0.690555,5.59655 0.690555,4.83465 0.903352,4.83465 0.903352,5.97151 0.673372,5.97151 0.212644,5.22419 0.212644,5.97151 "/>
  <path id="_1_0" class="fil1" d="M1.15466 5.40983c0,-0.115834 0.0174902,-0.213257 0.0521637,-0.291963 0.0256216,-0.0579937 0.0610622,-0.110311 0.105862,-0.156338 0.0447994,-0.0460268 0.0935878,-0.0800866 0.146825,-0.102486 0.0710347,-0.0299174 0.152655,-0.0451062 0.245323,-0.0451062 0.167691,0 0.301782,0.0521637 0.402427,0.156184 0.100645,0.104174 0.150814,0.249005 0.150814,0.434339 0,0.184107 -0.0500158,0.328017 -0.14974,0.431731 -0.0998781,0.104021 -0.233356,0.155877 -0.400433,0.155877 -0.168918,0 -0.303777,-0.0517034 -0.403501,-0.15511 -0.0997247,-0.1031 -0.14974,-0.245476 -0.14974,-0.427128zm0.236731 -0.00767113c0,0.128875 0.0299174,0.226605 0.0894454,0.293344 0.059528,0.0662786 0.135165,0.0997247 0.226759,0.0997247 0.0917467,0 0.166924,-0.0331393 0.225838,-0.0989576 0.0587608,-0.0661251 0.088218,-0.165236 0.088218,-0.29718 0,-0.130563 -0.0285366,-0.227833 -0.0860701,-0.291963 -0.0572266,-0.0642841 -0.133017,-0.0963494 -0.227986,-0.0963494 -0.0948152,0 -0.171373,0.0325256 -0.229213,0.0974233 -0.0579937,0.0650512 -0.0869906,0.163088 -0.0869906,0.293958z"/>
  <polygon id="_2_1" class="fil1" points="2.74872,5.97151 2.74872,5.02674 2.41211,5.02674 2.41211,4.83465 3.31393,4.83465 3.31393,5.02674 2.97901,5.02674 2.97901,5.97151 "/>
  <path id="_3_2" class="fil1" d="M4.42517 5.97151l-0.247931 0 -0.0981905 -0.258824 -0.455972 0 -0.0945083 0.258824 -0.243328 0 0.441397 -1.13686 0.243175 0 0.455358 1.13686zm-0.420838 -0.450909l-0.157872 -0.420838 -0.153423 0.420838 0.311294 0z"/>
  <path id="_4_3" class="fil1" d="M4.60329 5.97151l0 -1.13686 0.483588 0c0.121357,0 0.209882,0.0102793 0.264807,0.0306845 0.0552321,0.0204052 0.0992644,0.0566129 0.132404,0.108777 0.0329859,0.0523171 0.0497089,0.111845 0.0497089,0.179198 0,0.0854564 -0.0248545,0.155724 -0.0750236,0.211416 -0.0498623,0.055539 -0.124579,0.0905193 -0.22415,0.105094 0.0495555,0.02869 0.0903659,0.0606019 0.122278,0.0952754 0.0323722,0.0345201 0.0757908,0.096196 0.130409,0.184567l0.138541 0.221849 -0.27432 0 -0.164622 -0.248238c-0.0590677,-0.0880646 -0.0995713,-0.143757 -0.121511,-0.16677 -0.021786,-0.0227065 -0.044646,-0.0386625 -0.0690402,-0.0471007 -0.0245476,-0.00843824 -0.0633635,-0.0125807 -0.116294,-0.0125807l-0.046487 0 0 0.474689 -0.230287 0zm0.230287 -0.655882l0.169839 0c0.110004,0 0.178737,-0.0047561 0.2062,-0.0139615 0.0271558,-0.00935878 0.0489418,-0.0254681 0.0642841,-0.0481747 0.0156491,-0.02286 0.0233202,-0.0513966 0.0233202,-0.0854564 0,-0.0385091 -0.0102793,-0.0690402 -0.0306845,-0.0928207 -0.0204052,-0.0236271 -0.0492486,-0.0385091 -0.0862235,-0.0444925 -0.018871,-0.00260818 -0.0747168,-0.00414241 -0.167691,-0.00414241l-0.179044 0 0 0.289048z"/>
  <polygon id="_5_4" class="fil1" points="6.04531,5.97151 6.04531,5.49299 5.62861,4.83465 5.89772,4.83465 6.16651,5.28479 6.42825,4.83465 6.69229,4.83465 6.27544,5.49468 6.27544,5.97151 "/>
  <path id="_6_5" class="fil1" d="M7.27392 5.97151l0 -1.13686 0.368214 0c0.139308,0 0.230134,0.00552321 0.272478,0.0168765 0.0650512,0.0173368 0.119516,0.0543116 0.163548,0.111538 0.0440323,0.0570732 0.0658183,0.130869 0.0658183,0.221389 0,0.0698073 -0.0125807,0.128415 -0.037742,0.175976 -0.0254681,0.0477144 -0.0575335,0.0849961 -0.0963494,0.112152 -0.0388159,0.0270024 -0.0785524,0.0451062 -0.118749,0.0538513 -0.0547719,0.010893 -0.133938,0.0164162 -0.237652,0.0164162l-0.14928 0 0 0.428663 -0.230287 0 0 0zm0.230287 -0.944776l0 0.323875 0.125039 0c0.0903659,0 0.150354,-0.00598348 0.180885,-0.0179504 0.0305311,-0.0118135 0.0541582,-0.0305311 0.0713415,-0.0561527 0.0173368,-0.0253147 0.0259284,-0.0547719 0.0259284,-0.0886783 0,-0.0414241 -0.0121204,-0.0756373 -0.0362077,-0.102486 -0.0243942,-0.0270024 -0.0547719,-0.0440323 -0.0920535,-0.0509363 -0.0271558,-0.00506295 -0.0820811,-0.00767113 -0.164622,-0.00767113l-0.110311 0z"/>
  <path id="_7_6" class="fil1" d="M8.38869 4.83465l0.230287 0 0 0.616145c0,0.0977302 0.00291503,0.16094 0.00843824,0.189937 0.00981905,0.046487 0.0329859,0.0840756 0.069347,0.112152 0.0368214,0.0282298 0.0868372,0.0423446 0.150354,0.0423446 0.0642841,0 0.113072,-0.0131943 0.145751,-0.0400433 0.0328324,-0.0266955 0.0524705,-0.0592211 0.0590677,-0.098037 0.00659717,-0.0389693 0.00997247,-0.103253 0.00997247,-0.193312l0 -0.629186 0.230287 0 0 0.597734c0,0.1367 -0.00598348,0.233202 -0.0184107,0.289508 -0.0125807,0.0564595 -0.0352872,0.104021 -0.0687333,0.14299 -0.0329859,0.0388159 -0.0774784,0.0695004 -0.133017,0.0925138 -0.0558458,0.0230134 -0.128415,0.0346735 -0.218013,0.0346735 -0.108163,0 -0.190244,-0.0124272 -0.24609,-0.0375885 -0.0558458,-0.0251613 -0.100032,-0.0576869 -0.132557,-0.0977302 -0.0325256,-0.0403501 -0.0536979,-0.0822345 -0.0641306,-0.126267 -0.0150354,-0.0652046 -0.0223997,-0.161401 -0.0223997,-0.288741l0 -0.607093 -0.000153423 0z"/>
  <path id="_8_7" class="fil1" d="M9.59106 4.83465l0.454745 0c0.0902125,0 0.157105,0.00368214 0.20129,0.0110464 0.0444925,0.00782455 0.0839222,0.0233202 0.118902,0.0469473 0.0349803,0.0237805 0.0639772,0.0552321 0.0872974,0.0946617 0.0233202,0.0394296 0.0349803,0.0839222 0.0349803,0.132864 0,0.0529308 -0.0142683,0.102026 -0.0429583,0.146058 -0.0285366,0.0444925 -0.0673525,0.0774784 -0.116448,0.0998781 0.0691936,0.0202518 0.122124,0.0547719 0.159406,0.103407 0.0369748,0.0487884 0.055539,0.105862 0.055539,0.17168 0,0.0520103 -0.011967,0.102179 -0.0359009,0.151121 -0.0242408,0.0489418 -0.0569198,0.088218 -0.0988041,0.117522 -0.0414241,0.0291503 -0.0928207,0.0471007 -0.154036,0.0540047 -0.0378954,0.00398899 -0.130409,0.00659717 -0.276621,0.00767113l-0.387239 0 0 -1.13686 -0.000153423 0zm0.230287 0.189017l0 0.261892 0.150354 0c0.0891385,0 0.144677,-0.0013808 0.166463,-0.00398899 0.0391228,-0.00444925 0.0701141,-0.0179504 0.0926672,-0.0403501 0.0223997,-0.0225531 0.0335995,-0.0520103 0.0335995,-0.0885248 0,-0.0352872 -0.00981905,-0.0635169 -0.0291503,-0.0854564 -0.0193312,-0.0219394 -0.0481747,-0.0352872 -0.0862235,-0.0397364 -0.0227065,-0.00260818 -0.088218,-0.00383556 -0.195921,-0.00383556l-0.13179 0 0 0zm0 0.450756l0 0.304851 0.212797 0c0.0825413,0 0.135165,-0.00230134 0.157412,-0.00675059 0.0340598,-0.00644375 0.0618293,-0.0216326 0.0833085,-0.0455665 0.0214792,-0.0243942 0.0323722,-0.0563061 0.0323722,-0.0968096 0,-0.0345201 -0.00828482,-0.0633635 -0.0250079,-0.087144 -0.0164162,-0.0237805 -0.0403501,-0.0412707 -0.0716483,-0.0521637 -0.0311448,-0.0107396 -0.0992644,-0.0162628 -0.203745,-0.0162628l-0.185488 0 0 -0.000153423z"/>
  <polygon id="_9_8" class="fil1" points="10.7999,5.97151 10.7999,4.84416 11.03,4.84416 11.03,5.77928 11.6001,5.77928 11.6001,5.97151 "/>
  <polygon id="_10_9" class="fil1" points="11.8111,5.97151 11.8111,4.83465 12.0415,4.83465 12.0415,5.97151 "/>
  <path id="_11_10" class="fil1" d="M13.0432 5.55221l0.222309 0.068273c-0.0342132,0.125346 -0.091133,0.218167 -0.170452,0.279076 -0.0794729,0.0606019 -0.179965,0.0909796 -0.301936,0.0909796 -0.151121,0 -0.27524,-0.0517034 -0.37251,-0.154803 -0.0972699,-0.103253 -0.145905,-0.244249 -0.145905,-0.423446 0,-0.18917 0.0489418,-0.336456 0.146519,-0.44109 0.0977302,-0.104941 0.226298,-0.157258 0.385704,-0.157258 0.139154,0 0.252073,0.0414241 0.33891,0.123659 0.0518568,0.048635 0.0905193,0.118596 0.116448,0.209729l-0.227065 0.0540047c-0.0135012,-0.0586074 -0.0414241,-0.105248 -0.0840756,-0.139461 -0.0428049,-0.0340598 -0.0948152,-0.0510897 -0.15557,-0.0510897 -0.0843824,0 -0.152962,0.0302242 -0.205433,0.0908262 -0.0526239,0.0602951 -0.0787058,0.158179 -0.0787058,0.293651 0,0.14345 0.0259284,0.245936 0.0774784,0.306845 0.0518568,0.0610622 0.119056,0.0914399 0.201904,0.0914399 0.0610622,0 0.113686,-0.0193312 0.157565,-0.0581472 0.0440323,-0.0388159 0.0757908,-0.0997247 0.0948152,-0.183187l0 0z"/>
  <path id="_12_11" class="fil1" d="M14.9246 5.97151l-0.247931 0 -0.0981905 -0.258824 -0.455972 0 -0.0945083 0.258824 -0.243328 0 0.441397 -1.13686 0.243175 0 0.455358 1.13686zm-0.420838 -0.450909l-0.157872 -0.420838 -0.153423 0.420838 0.311294 0z"/>
  <path id="_13" class="fil1" d="M15.0426 5.60299l0.223844 -0.0220929c0.0135012,0.0747168 0.0405036,0.129489 0.0816208,0.164776 0.0408104,0.0351338 0.0963494,0.0527774 0.16585,0.0527774 0.0734894,0 0.129182,-0.0156491 0.166463,-0.0469473 0.0374351,-0.0311448 0.0559992,-0.0678128 0.0559992,-0.109544 0,-0.0270024 -0.00782455,-0.0497089 -0.0234737,-0.0687333 -0.0156491,-0.018871 -0.0431117,-0.0352872 -0.0822345,-0.0490952 -0.0266955,-0.00935878 -0.0876043,-0.0259284 -0.18288,-0.0497089 -0.122431,-0.0306845 -0.208501,-0.068273 -0.258057,-0.112919 -0.0695004,-0.0627498 -0.104174,-0.139154 -0.104174,-0.22952 0,-0.0578403 0.0162628,-0.112459 0.0487884,-0.162935 0.0329859,-0.0506295 0.0800866,-0.0889851 0.141762,-0.115374 0.0616759,-0.0263887 0.135779,-0.0397364 0.223076,-0.0397364 0.141916,0 0.249158,0.0314516 0.32096,0.0946617 0.0719552,0.0633635 0.109544,0.147439 0.113226,0.252994l-0.230287 0.00797797c-0.00981905,-0.0587608 -0.0306845,-0.100799 -0.0625964,-0.126574 -0.0320653,-0.0256216 -0.08024,-0.0385091 -0.144371,-0.0385091 -0.0661251,0 -0.117982,0.0136546 -0.155264,0.0411173 -0.0240873,0.017797 -0.0363612,0.0414241 -0.0363612,0.0710347 0,0.0270024 0.0113533,0.0500158 0.0342132,0.0690402 0.0288434,0.024701 0.0989576,0.0501692 0.210342,0.0765579 0.111538,0.0262353 0.193773,0.0536979 0.246857,0.0817742 0.0535445,0.0283832 0.0952754,0.0665854 0.1255,0.115681 0.0300708,0.0489418 0.0452597,0.109237 0.0452597,0.180885 0,0.0652046 -0.0179504,0.126267 -0.0543116,0.183187 -0.0362077,0.0569198 -0.0872974,0.0992644 -0.153423,0.126727 -0.0662786,0.0277695 -0.148666,0.0415775 -0.247317,0.0415775 -0.143757,0 -0.254068,-0.0331393 -0.331086,-0.0994178 -0.0770181,-0.0662786 -0.122891,-0.162781 -0.137927,-0.289662z"/>
  <path id="_14" class="fil1" d="M16.1575 5.60299l0.22369 -0.0220929c0.0135012,0.0747168 0.0405036,0.129489 0.0816208,0.164776 0.0409638,0.0351338 0.0963494,0.0527774 0.16585,0.0527774 0.0734894,0 0.129182,-0.0156491 0.166463,-0.0469473 0.0374351,-0.0311448 0.0561527,-0.0678128 0.0561527,-0.109544 0,-0.0270024 -0.00797797,-0.0497089 -0.0236271,-0.0687333 -0.0156491,-0.018871 -0.0431117,-0.0352872 -0.0822345,-0.0490952 -0.0266955,-0.00935878 -0.0876043,-0.0259284 -0.18288,-0.0497089 -0.122431,-0.0306845 -0.208501,-0.068273 -0.257903,-0.112919 -0.0696539,-0.0627498 -0.104327,-0.139154 -0.104327,-0.22952 0,-0.0578403 0.0164162,-0.112459 0.0489418,-0.162935 0.0328324,-0.0506295 0.0799332,-0.0889851 0.141609,-0.115374 0.0616759,-0.0263887 0.135779,-0.0397364 0.223076,-0.0397364 0.142069,0 0.249312,0.0314516 0.32096,0.0946617 0.0719552,0.0633635 0.109544,0.147439 0.113226,0.252994l-0.230134 0.00797797c-0.00981905,-0.0587608 -0.0308379,-0.100799 -0.0627498,-0.126574 -0.0320653,-0.0256216 -0.08024,-0.0385091 -0.144217,-0.0385091 -0.0662786,0 -0.117982,0.0136546 -0.155417,0.0411173 -0.0240873,0.017797 -0.0362077,0.0414241 -0.0362077,0.0710347 0,0.0270024 0.0113533,0.0500158 0.0340598,0.0690402 0.0288434,0.024701 0.0989576,0.0501692 0.210342,0.0765579 0.111538,0.0262353 0.193773,0.0536979 0.246857,0.0817742 0.0535445,0.0283832 0.0952754,0.0665854 0.1255,0.115681 0.0300708,0.0489418 0.0452597,0.109237 0.0452597,0.180885 0,0.0652046 -0.0179504,0.126267 -0.0543116,0.183187 -0.0362077,0.0569198 -0.0872974,0.0992644 -0.153423,0.126727 -0.0661251,0.0277695 -0.148666,0.0415775 -0.247317,0.0415775 -0.143757,0 -0.254068,-0.0331393 -0.331086,-0.0994178 -0.0770181,-0.0662786 -0.122738,-0.162781 -0.137773,-0.289662z"/>
  <polygon id="_15" class="fil1" points="17.3246,5.97151 17.3246,4.83465 17.5549,4.83465 17.5549,5.97151 "/>
  <path id="_16" class="fil1" d="M17.7692 5.60299l0.223844 -0.0220929c0.0133478,0.0747168 0.0403501,0.129489 0.0814674,0.164776 0.0409638,0.0351338 0.0963494,0.0527774 0.166003,0.0527774 0.0734894,0 0.129028,-0.0156491 0.16631,-0.0469473 0.0374351,-0.0311448 0.0561527,-0.0678128 0.0561527,-0.109544 0,-0.0270024 -0.00797797,-0.0497089 -0.0236271,-0.0687333 -0.0154957,-0.018871 -0.0429583,-0.0352872 -0.0822345,-0.0490952 -0.0266955,-0.00935878 -0.0874509,-0.0259284 -0.182726,-0.0497089 -0.122585,-0.0306845 -0.208655,-0.068273 -0.258057,-0.112919 -0.0696539,-0.0627498 -0.104327,-0.139154 -0.104327,-0.22952 0,-0.0578403 0.0164162,-0.112459 0.0489418,-0.162935 0.0328324,-0.0506295 0.0799332,-0.0889851 0.141609,-0.115374 0.0616759,-0.0263887 0.135779,-0.0397364 0.223076,-0.0397364 0.142069,0 0.249312,0.0314516 0.32096,0.0946617 0.0719552,0.0633635 0.109697,0.147439 0.113226,0.252994l-0.230134 0.00797797c-0.00981905,-0.0587608 -0.0308379,-0.100799 -0.0627498,-0.126574 -0.0320653,-0.0256216 -0.08024,-0.0385091 -0.144217,-0.0385091 -0.0662786,0 -0.117982,0.0136546 -0.155264,0.0411173 -0.0242408,0.017797 -0.0363612,0.0414241 -0.0363612,0.0710347 0,0.0270024 0.0113533,0.0500158 0.0342132,0.0690402 0.02869,0.024701 0.0989576,0.0501692 0.210189,0.0765579 0.111538,0.0262353 0.193773,0.0536979 0.246857,0.0817742 0.0535445,0.0283832 0.0952754,0.0665854 0.1255,0.115681 0.0302242,0.0489418 0.0452597,0.109237 0.0452597,0.180885 0,0.0652046 -0.0179504,0.126267 -0.0543116,0.183187 -0.0362077,0.0569198 -0.0872974,0.0992644 -0.153423,0.126727 -0.0661251,0.0277695 -0.148666,0.0415775 -0.247317,0.0415775 -0.143604,0 -0.254068,-0.0331393 -0.330933,-0.0994178 -0.0771716,-0.0662786 -0.122891,-0.162781 -0.137927,-0.289662z"/>
  <polygon id="_17" class="fil1" points="19.1998,5.97151 19.1998,5.02674 18.8633,5.02674 18.8633,4.83465 19.765,4.83465 19.765,5.02674 19.43,5.02674 19.43,5.97151 "/>
  <path id="_18" class="fil1" d="M20.3507 5.60299l0.22369 -0.0220929c0.0135012,0.0747168 0.0405036,0.129489 0.0816208,0.164776 0.0409638,0.0351338 0.0963494,0.0527774 0.16585,0.0527774 0.0734894,0 0.129182,-0.0156491 0.166463,-0.0469473 0.0374351,-0.0311448 0.0561527,-0.0678128 0.0561527,-0.109544 0,-0.0270024 -0.00797797,-0.0497089 -0.0236271,-0.0687333 -0.0154957,-0.018871 -0.0431117,-0.0352872 -0.0822345,-0.0490952 -0.0266955,-0.00935878 -0.0876043,-0.0259284 -0.18288,-0.0497089 -0.122431,-0.0306845 -0.208501,-0.068273 -0.257903,-0.112919 -0.0696539,-0.0627498 -0.104327,-0.139154 -0.104327,-0.22952 0,-0.0578403 0.0164162,-0.112459 0.0489418,-0.162935 0.0328324,-0.0506295 0.0799332,-0.0889851 0.141609,-0.115374 0.0616759,-0.0263887 0.135779,-0.0397364 0.223076,-0.0397364 0.142069,0 0.249312,0.0314516 0.32096,0.0946617 0.0719552,0.0633635 0.109544,0.147439 0.113226,0.252994l-0.230134 0.00797797c-0.00981905,-0.0587608 -0.0308379,-0.100799 -0.0627498,-0.126574 -0.0320653,-0.0256216 -0.08024,-0.0385091 -0.144217,-0.0385091 -0.0662786,0 -0.117982,0.0136546 -0.155264,0.0411173 -0.0242408,0.017797 -0.0363612,0.0414241 -0.0363612,0.0710347 0,0.0270024 0.0113533,0.0500158 0.0340598,0.0690402 0.0288434,0.024701 0.0989576,0.0501692 0.210342,0.0765579 0.111538,0.0262353 0.193773,0.0536979 0.246857,0.0817742 0.0535445,0.0283832 0.0952754,0.0665854 0.1255,0.115681 0.0302242,0.0489418 0.0452597,0.109237 0.0452597,0.180885 0,0.0652046 -0.0179504,0.126267 -0.0543116,0.183187 -0.0362077,0.0569198 -0.0872974,0.0992644 -0.153423,0.126727 -0.0661251,0.0277695 -0.148666,0.0415775 -0.247317,0.0415775 -0.143757,0 -0.254068,-0.0331393 -0.331086,-0.0994178 -0.0770181,-0.0662786 -0.122738,-0.162781 -0.137773,-0.289662z"/>
  <path id="_19" class="fil1" d="M21.4782 5.40983c0,-0.115834 0.0173368,-0.213257 0.0520103,-0.291963 0.0256216,-0.0579937 0.0612156,-0.110311 0.105862,-0.156338 0.0447994,-0.0460268 0.0937412,-0.0800866 0.146979,-0.102486 0.0708812,-0.0299174 0.152655,-0.0451062 0.245323,-0.0451062 0.167691,0 0.301629,0.0521637 0.402274,0.156184 0.100645,0.104174 0.150968,0.249005 0.150968,0.434339 0,0.184107 -0.0501692,0.328017 -0.149894,0.431731 -0.0997247,0.104021 -0.233356,0.155877 -0.40028,0.155877 -0.169072,0 -0.30393,-0.0517034 -0.403655,-0.15511 -0.0997247,-0.1031 -0.149587,-0.245476 -0.149587,-0.427128zm0.236578 -0.00767113c0,0.128875 0.0299174,0.226605 0.0894454,0.293344 0.059528,0.0662786 0.135165,0.0997247 0.226759,0.0997247 0.0917467,0 0.166924,-0.0331393 0.225838,-0.0989576 0.0589143,-0.0661251 0.088218,-0.165236 0.088218,-0.29718 0,-0.130563 -0.0285366,-0.227833 -0.0860701,-0.291963 -0.0570732,-0.0642841 -0.133017,-0.0963494 -0.227986,-0.0963494 -0.0948152,0 -0.17122,0.0325256 -0.229213,0.0974233 -0.0579937,0.0650512 -0.0869906,0.163088 -0.0869906,0.293958z"/>
  <polygon id="_20" class="fil1" points="22.8165,5.97151 22.8165,4.83465 23.5978,4.83465 23.5978,5.02674 23.0468,5.02674 23.0468,5.29661 23.5231,5.29661 23.5231,5.48885 23.0468,5.48885 23.0468,5.97151 "/>
  <polygon id="_21" class="fil1" points="23.9985,5.97151 23.7311,4.83465 23.9677,4.83465 24.1367,5.61557 24.3443,4.83465 24.6179,4.83465 24.8164,5.62877 24.9893,4.83465 25.2204,4.83465 24.9465,5.97151 24.7007,5.97151 24.4766,5.12155 24.2509,5.97151 "/>
  <path id="_22" class="fil1" d="M26.3331 5.97151l-0.247931 0 -0.0981905 -0.258824 -0.455972 0 -0.0945083 0.258824 -0.243328 0 0.441397 -1.13686 0.243175 0 0.455358 1.13686zm-0.420838 -0.450909l-0.157872 -0.420838 -0.153423 0.420838 0.311294 0z"/>
  <path id="_23" class="fil1" d="M26.5113 5.97151l0 -1.13686 0.483588 0c0.121357,0 0.209882,0.0102793 0.264807,0.0306845 0.0553856,0.0204052 0.0992644,0.0566129 0.132404,0.108777 0.0329859,0.0523171 0.0497089,0.111845 0.0497089,0.179198 0,0.0854564 -0.0248545,0.155724 -0.0748702,0.211416 -0.0500158,0.055539 -0.124733,0.0905193 -0.22415,0.105094 0.0495555,0.02869 0.0902125,0.0606019 0.122278,0.0952754 0.0322187,0.0345201 0.0756373,0.096196 0.130256,0.184567l0.138541 0.221849 -0.27432 0 -0.164622 -0.248238c-0.0590677,-0.0880646 -0.0995713,-0.143757 -0.121511,-0.16677 -0.0216326,-0.0227065 -0.044646,-0.0386625 -0.0690402,-0.0471007 -0.0245476,-0.00843824 -0.0633635,-0.0125807 -0.116141,-0.0125807l-0.0466405 0 0 0.474689 -0.230287 0zm0.230287 -0.655882l0.169839 0c0.110004,0 0.178737,-0.0047561 0.2062,-0.0139615 0.0271558,-0.00935878 0.0489418,-0.0254681 0.0642841,-0.0481747 0.0156491,-0.02286 0.0233202,-0.0513966 0.0233202,-0.0854564 0,-0.0385091 -0.0102793,-0.0690402 -0.0306845,-0.0928207 -0.0204052,-0.0236271 -0.0492486,-0.0385091 -0.0862235,-0.0444925 -0.018871,-0.00260818 -0.0747168,-0.00414241 -0.167691,-0.00414241l-0.179044 0 0 0.289048z"/>
  <polygon id="_24" class="fil1" points="27.7136,5.97151 27.7136,4.83465 28.5552,4.83465 28.5552,5.02674 27.9439,5.02674 27.9439,5.27927 28.5124,5.27927 28.5124,5.47136 27.9439,5.47136 27.9439,5.77928 28.5774,5.77928 28.5774,5.97151 "/>
 </g>
</svg>
