<?xml version="1.0" encoding="UTF-8"?>
<!DOCTYPE svg PUBLIC "-//W3C//DTD SVG 1.1//EN" "http://www.w3.org/Graphics/SVG/1.1/DTD/svg11.dtd">
<!-- Creator: CorelDRAW -->
<svg xmlns="http://www.w3.org/2000/svg" xml:space="preserve" width="200px" height="42px" style="shape-rendering:geometricPrecision; text-rendering:geometricPrecision; image-rendering:optimizeQuality; fill-rule:evenodd; clip-rule:evenodd"
viewBox="0 0 23.8998 5.01138"
 xmlns:xlink="http://www.w3.org/1999/xlink">
 <defs>
  <style type="text/css">
   <![CDATA[
    .fil1 {fill:#24A87C;fill-rule:nonzero}
    .fil0 {fill:#33CC99;fill-rule:nonzero}
   ]]>
  </style>
 </defs>
 <g id="Layer_x0020_1">
  <metadata id="CorelCorpID_0Corel-Layer"/>
  <path class="fil0" d="M0.472402 0.634574l0.00846851 0c0.0515168,0.0543396 0.368804,0.411711 0.67988,0.720388 0.297386,0.294422 0.663226,0.668871 0.842758,0.840359 0.0314746,0.0314746 0.0659133,0.0629493 0.0972467,0.0629493 0.0256878,0 0.0372615,-0.025829 0.0372615,-0.0886371l0.0313335 -1.80379c0.00282284,-0.159914 0.0256878,-0.22004 0.105715,-0.242905 0.0344386,-0.00860965 0.0573036,-0.00860965 0.0858143,-0.00860965 0.0342975,0 0.0513756,-0.00860965 0.0513756,-0.0256878 0,-0.022865 -0.0283695,-0.0256878 -0.065631,-0.0256878 -0.140013,0 -0.248692,0.00846851 -0.280167,0.00846851 -0.0599853,0 -0.197175,-0.00846851 -0.345374,-0.00846851 -0.042766,0 -0.0742406,0.0026817 -0.0742406,0.0256878 0,0.0170782 0.0114325,0.0256878 0.04573,0.0256878 0.0399431,0 0.108679,0 0.151022,0.0172193 0.0685949,0.0285107 0.0942828,0.0828503 0.0971056,0.25716l0.0286518 1.28354 -0.0143965 0c-0.0485528,-0.04573 -0.434011,-0.4573 -0.628364,-0.651793 -0.416792,-0.414534 -0.851368,-0.880443 -0.885665,-0.917563 -0.0491174,-0.0515168 -0.0748052,-0.0886371 -0.106139,-0.0886371 -0.0286518,0 -0.0372615,0.0400843 -0.0372615,0.0972467l-0.0256878 1.69215c-0.00296398,0.248692 -0.0142553,0.331683 -0.0886371,0.354407 -0.0399431,0.0115736 -0.0914599,0.0143965 -0.128721,0.0143965 -0.0283695,0 -0.04573,0.00578682 -0.04573,0.022865 0,0.0256878 0.025829,0.0286518 0.0629493,0.0286518 0.148622,0 0.282989,-0.00860965 0.308818,-0.00860965 0.0546219,0 0.169088,0.00860965 0.354831,0.00860965 0.0400843,0 0.0657721,-0.00578682 0.0657721,-0.0286518 0,-0.0170782 -0.0172193,-0.022865 -0.0485528,-0.022865 -0.0458711,0 -0.10007,-0.00282284 -0.148764,-0.0200421 -0.0570213,-0.0200421 -0.0942828,-0.0942828 -0.10007,-0.317287l-0.0313335 -1.20055 0 0z"/>
  <path id="_1" class="fil0" d="M3.8615 2.26392c0.726034,0 1.18347,-0.517285 1.18347,-1.1719 0,-0.654616 -0.443044,-1.06915 -1.15496,-1.06915 -0.857437,0 -1.18051,0.631751 -1.18051,1.12053 0,0.505994 0.331683,1.12053 1.152,1.12053l0 0zm0.120112 -0.142836c-0.548901,0 -0.87762,-0.471696 -0.87762,-1.06633 0,-0.711778 0.374449,-0.894557 0.70331,-0.894557 0.468732,0 0.837395,0.397173 0.837395,1.03753 0,0.826103 -0.463086,0.92335 -0.663084,0.92335l0 0z"/>
  <path id="_2" class="fil0" d="M5.99966 1.39491c0,0.263088 0,0.488915 -0.0142553,0.608886 -0.00860965,0.0828503 -0.025829,0.1458 -0.0828503,0.157232 -0.025829,0.00578682 -0.0601264,0.0114325 -0.103034,0.0114325 -0.0342975,0 -0.04573,0.00860965 -0.04573,0.022865 0,0.0200421 0.0200421,0.0286518 0.0573036,0.0286518 0.114325,0 0.294281,-0.00860965 0.360194,-0.00860965 0.0798863,0 0.260124,0.00860965 0.44869,0.00860965 0.0314746,0 0.0543396,-0.00860965 0.0543396,-0.0286518 0,-0.0142553 -0.0143965,-0.022865 -0.0458711,-0.022865 -0.042766,0 -0.105715,-0.00564567 -0.145658,-0.0114325 -0.0858143,-0.0114325 -0.103034,-0.0743818 -0.111502,-0.154268 -0.0142553,-0.122935 -0.0142553,-0.348762 -0.0142553,-0.61185l0 -1.1719 0.360053 0.00860965c0.254479,0.00564567 0.331683,0.0856731 0.337329,0.160055l0.00296398 0.0314746c0.00282284,0.042766 0.00846851,0.0570213 0.0313335,0.0570213 0.0172193,0 0.022865,-0.0170782 0.0256878,-0.04573 0,-0.0742406 0.00860965,-0.271557 0.00860965,-0.331542 0,-0.042766 -0.00282284,-0.0599853 -0.022865,-0.0599853 -0.0114325,0 -0.0342975,0.00564567 -0.0772046,0.0142553 -0.042766,0.00578682 -0.105715,0.0142553 -0.197175,0.0142553l-1.13196 0c-0.0944239,0 -0.202962,-0.00564567 -0.285953,-0.0142553 -0.0714178,-0.00564567 -0.10007,-0.0342975 -0.122793,-0.0342975 -0.0172193,0 -0.025829,0.0172193 -0.0342975,0.0543396 -0.00578682,0.022865 -0.0599853,0.282989 -0.0599853,0.328719 0,0.0314746 0.00564567,0.04573 0.0256878,0.04573 0.0172193,0 0.0256878,-0.0114325 0.0314746,-0.0342975 0.00564567,-0.022865 0.0200421,-0.0571625 0.0485528,-0.10007 0.0429071,-0.0628081 0.111502,-0.0772046 0.277203,-0.0828503l0.425966 -0.0114325 0 1.17204 0 -0.000141142z"/>
  <path id="_3" class="fil0" d="M8.22942 1.4779c0.0142553,0 0.0227238,0.00564567 0.0285107,0.0200421l0.22865 0.605922c0.0143965,0.0342975 -0.00564567,0.0599853 -0.0256878,0.0657721 -0.0285107,0.00282284 -0.0400843,0.00860965 -0.0400843,0.0256878 0,0.0200421 0.0344386,0.0200421 0.0858143,0.022865 0.22865,0.00578682 0.437258,0.00578682 0.540291,0.00578682 0.105715,0 0.131544,-0.00578682 0.131544,-0.0286518 0,-0.019901 -0.0143965,-0.022865 -0.0372615,-0.022865 -0.0342975,0 -0.0772046,-0.00282284 -0.120112,-0.0114325 -0.0599853,-0.0170782 -0.142836,-0.056739 -0.251515,-0.312912 -0.18292,-0.433164 -0.640361,-1.59942 -0.708956,-1.75665 -0.0285107,-0.0657721 -0.04573,-0.0914599 -0.0714178,-0.0914599 -0.0286518,0 -0.04573,0.0314746 -0.0800274,0.114325l-0.717565 1.79518c-0.0570213,0.142977 -0.111361,0.240223 -0.242764,0.257302 -0.022865,0.00282284 -0.0629493,0.00578682 -0.0886371,0.00578682 -0.022865,0 -0.0342975,0.00564567 -0.0342975,0.022865 0,0.0227238 0.0172193,0.0285107 0.0543396,0.0285107 0.148481,0 0.305713,-0.00860965 0.337188,-0.00860965 0.0886371,0 0.211572,0.00860965 0.303032,0.00860965 0.0313335,0 0.0485528,-0.00578682 0.0485528,-0.0285107 0,-0.0172193 -0.00860965,-0.022865 -0.0429071,-0.022865l-0.0429071 0c-0.0884959,0 -0.114325,-0.0372615 -0.114325,-0.0887782 0,-0.0341563 0.0142553,-0.102751 0.0429071,-0.17431l0.154409 -0.408747c0.00564567,-0.0172193 0.0112913,-0.022865 0.0256878,-0.022865l0.637397 0 0.000141142 0zm-0.580375 -0.142977c-0.0114325,0 -0.0142553,-0.00860965 -0.0114325,-0.0200421l0.263088 -0.703169c0.00282284,-0.0114325 0.00860965,-0.0256878 0.0170782,-0.0256878 0.00860965,0 0.0114325,0.0142553 0.0143965,0.0256878l0.25716 0.705992c0.00296398,0.00860965 0,0.0172193 -0.0143965,0.0172193l-0.525895 0 0 0z"/>
  <path id="_4" class="fil0" d="M9.47852 1.39491c0,0.263088 0,0.488915 -0.0142553,0.608886 -0.0114325,0.0828503 -0.0256878,0.1458 -0.0828503,0.157232 -0.0256878,0.00578682 -0.0601264,0.0114325 -0.102892,0.0114325 -0.0344386,0 -0.0458711,0.00860965 -0.0458711,0.022865 0,0.0200421 0.0200421,0.0286518 0.0571625,0.0286518 0.114466,0 0.294422,-0.00860965 0.348762,-0.00860965 0.0429071,0 0.254338,0.00860965 0.420179,0.00860965 0.0372615,0 0.0571625,-0.00860965 0.0571625,-0.0286518 0,-0.0142553 -0.0114325,-0.022865 -0.0342975,-0.022865 -0.0342975,0 -0.0972467,-0.00564567 -0.140013,-0.0114325 -0.0858143,-0.0114325 -0.103034,-0.0743818 -0.111502,-0.157232 -0.0143965,-0.119971 -0.0143965,-0.345798 -0.0143965,-0.611709l0 -0.0399431c0,-0.0172193 0.00860965,-0.022865 0.022865,-0.022865l0.248692 0.00564567c0.0200421,0 0.0372615,0.00296398 0.0515168,0.0200421 0.0371203,0.0429071 0.168665,0.237259 0.282989,0.39435 0.160196,0.220181 0.268734,0.354548 0.391669,0.42032 0.0742406,0.0399431 0.1458,0.0543396 0.305854,0.0543396l0.271557 0c0.0341563,0 0.0543396,-0.00578682 0.0543396,-0.0286518 0,-0.0142553 -0.0114325,-0.022865 -0.0344386,-0.022865 -0.0227238,0 -0.0485528,-0.00282284 -0.0800274,-0.00860965 -0.042766,-0.00860965 -0.160055,-0.0285107 -0.32011,-0.194352 -0.168665,-0.177133 -0.36584,-0.431612 -0.620177,-0.751722 0.288635,-0.234437 0.377272,-0.42893 0.377272,-0.640361 0,-0.19153 -0.114325,-0.337329 -0.194352,-0.391669 -0.154409,-0.105715 -0.345939,-0.122793 -0.526036,-0.122793 -0.0886371,0 -0.305854,0.00846851 -0.40296,0.00846851 -0.0601264,0 -0.240223,-0.00846851 -0.391669,-0.00846851 -0.0429071,0 -0.0629493,0.00564567 -0.0629493,0.0256878 0,0.0200421 0.0172193,0.0256878 0.0485528,0.0256878 0.0400843,0 0.0886371,0.00282284 0.111502,0.00860965 0.0944239,0.0200421 0.117148,0.065631 0.122935,0.162878 0.00564567,0.0916011 0.00564567,0.171487 0.00564567,0.606063l0 0.50303 0.000141142 0zm0.337329 -1.14621c0,-0.022865 0.00564567,-0.0342975 0.0256878,-0.0399431 0.0286518,-0.00860965 0.0800274,-0.0115736 0.151586,-0.0115736 0.168665,0 0.437258,0.117289 0.437258,0.523213 0,0.234295 -0.0828503,0.36584 -0.168523,0.428789 -0.0515168,0.0371203 -0.0886371,0.0485528 -0.203103,0.0485528 -0.0714178,0 -0.157091,-0.00860965 -0.217217,-0.0285107 -0.0200421,-0.00860965 -0.0256878,-0.0200421 -0.0256878,-0.0515168l0 -0.86901 0 0z"/>
  <path id="_5" class="fil0" d="M11.8998 1.71798c0,0.04573 0,0.165842 -0.00860965,0.285812 -0.00578682,0.0828503 -0.0314746,0.1458 -0.0886371,0.157232 -0.025829,0.00564567 -0.0599853,0.0114325 -0.10007,0.0114325 -0.0313335,0 -0.04573,0.00860965 -0.04573,0.022865 0,0.022865 0.022865,0.0286518 0.0629493,0.0286518 0.105715,0 0.285812,-0.00860965 0.35723,-0.00860965 0.0772046,0 0.257302,0.00860965 0.437399,0.00860965 0.0371203,0 0.0599853,-0.00860965 0.0599853,-0.0286518 0,-0.0143965 -0.0142553,-0.022865 -0.04573,-0.022865 -0.0400843,0 -0.103034,-0.00578682 -0.142977,-0.0114325 -0.0858143,-0.0114325 -0.111361,-0.0743818 -0.117148,-0.157232 -0.00860965,-0.119971 -0.00860965,-0.240082 -0.00860965,-0.285812l0 -0.234437c0,-0.0944239 0,-0.18292 0.0429071,-0.285812 0.0513756,-0.122935 0.451654,-0.79477 0.545937,-0.909095 0.0629493,-0.0772046 0.0944239,-0.111361 0.154409,-0.140013 0.042766,-0.022865 0.0971056,-0.0342975 0.125757,-0.0342975 0.0314746,0 0.0543396,-0.00860965 0.0543396,-0.0285107 0,-0.0172193 -0.0200421,-0.022865 -0.0515168,-0.022865 -0.0543396,0 -0.242905,0.00846851 -0.305854,0.00846851 -0.0828503,0 -0.17431,-0.00846851 -0.268734,-0.00846851 -0.0342975,0 -0.0485528,0.00564567 -0.0485528,0.0256878 0,0.0170782 0.0256878,0.022865 0.0515168,0.0285107 0.0485528,0.0114325 0.0599853,0.0429071 0.0599853,0.0714178 0,0.0372615 -0.0114325,0.0858143 -0.0400843,0.148764 -0.0399431,0.0884959 -0.400137,0.717424 -0.428789,0.786019 -0.04573,-0.0800274 -0.445867,-0.768941 -0.485951,-0.854614 -0.019901,-0.0400843 -0.0342975,-0.0743818 -0.0342975,-0.0972467 0,-0.022865 0.0143965,-0.04573 0.0400843,-0.0515168 0.042766,-0.0112913 0.0628081,-0.0142553 0.0628081,-0.0313335 0,-0.0172193 -0.0142553,-0.0256878 -0.042766,-0.0256878 -0.128721,0 -0.245869,0.00846851 -0.305854,0.00846851 -0.0944239,0 -0.308677,-0.00846851 -0.360194,-0.00846851 -0.0342975,0 -0.0541985,0.00846851 -0.0541985,0.0256878 0,0.0200421 0.019901,0.0256878 0.042766,0.0256878 0.0344386,0 0.0829914,0.0170782 0.119971,0.0371203 0.0543396,0.0314746 0.125757,0.103034 0.197316,0.208749 0.10007,0.148622 0.483129,0.777551 0.50303,0.823281 0.0371203,0.0828503 0.0657721,0.1458 0.0657721,0.300068l0 0.234437 0.000141142 0z"/>
  <path id="_6" class="fil0" d="M13.755 2.26392c0.151445,0 0.3115,-0.0256878 0.454477,-0.117148 0.205785,-0.134367 0.268734,-0.331542 0.268734,-0.497384 0,-0.271557 -0.122935,-0.468873 -0.468873,-0.728998l-0.0800274 -0.0599853c-0.237259,-0.180097 -0.303032,-0.280167 -0.303032,-0.41157 0,-0.171487 0.128721,-0.294422 0.340152,-0.294422 0.185743,0 0.268734,0.0856731 0.311641,0.140013 0.0599853,0.0743818 0.0742406,0.162878 0.0742406,0.188707 0,0.0342975 0.00860965,0.0515168 0.0286518,0.0515168 0.022865,0 0.0313335,-0.022865 0.0313335,-0.0858143 0,-0.223004 0.0115736,-0.305854 0.0115736,-0.342975 0,-0.0200421 -0.0143965,-0.0286518 -0.0402254,-0.0344386 -0.0740995,-0.019901 -0.194211,-0.0485528 -0.380095,-0.0485528 -0.397314,0 -0.660262,0.225827 -0.660262,0.540291 0,0.231614 0.108538,0.431612 0.423002,0.677481l0.131544 0.102892c0.237259,0.185884 0.280025,0.317287 0.280025,0.457441 0,0.151445 -0.125757,0.325897 -0.382918,0.325897 -0.177274,0 -0.345939,-0.0772046 -0.408888,-0.288776 -0.0142553,-0.0485528 -0.0256878,-0.108679 -0.0256878,-0.1458 0,-0.022865 -0.00282284,-0.0485528 -0.0286518,-0.0485528 -0.0227238,0 -0.0313335,0.0313335 -0.0341563,0.0743818 -0.00282284,0.04573 -0.0143965,0.217217 -0.0143965,0.374308 0,0.0629493 0.00860965,0.0772046 0.0543396,0.0972467 0.122935,0.0543396 0.251656,0.0743818 0.417356,0.0743818l0.000141142 -0.000141142z"/>
  <path id="_7" class="fil0" d="M15.9987 2.26392c0.726175,0 1.18347,-0.517285 1.18347,-1.1719 0,-0.654616 -0.443044,-1.06915 -1.15482,-1.06915 -0.857437,0 -1.18051,0.631751 -1.18051,1.12053 0,0.505994 0.331542,1.12053 1.15186,1.12053l0 0zm0.120253 -0.142836c-0.548901,0 -0.87762,-0.471696 -0.87762,-1.06633 0,-0.711778 0.374449,-0.894557 0.703169,-0.894557 0.468732,0 0.837536,0.397173 0.837536,1.03753 0,0.826103 -0.463086,0.92335 -0.663084,0.92335l0 0z"/>
  <path id="_8" class="fil0" d="M18.1397 1.16343c0,-0.0200421 0.00578682,-0.0256878 0.0201833,-0.0256878 0.0485528,0 0.351443,0 0.423002,0.00860965 0.0884959,0.0112913 0.131544,0.0628081 0.1458,0.102892 0.0114325,0.0342975 0.0170782,0.0685949 0.0170782,0.0886371 0,0.0200421 0.00564567,0.0399431 0.022865,0.0399431 0.0285107,0 0.0285107,-0.0285107 0.0285107,-0.0543396 0,-0.019901 0.00578682,-0.151445 0.0115736,-0.208608 0.00846851,-0.0886371 0.022865,-0.160196 0.022865,-0.177274 0,-0.0170782 -0.00578682,-0.0256878 -0.0172193,-0.0256878 -0.0172193,0 -0.022865,0.0114325 -0.0371203,0.0285107 -0.0286518,0.0372615 -0.0685949,0.0486939 -0.122935,0.0515168 -0.0400843,0.00282284 -0.0800274,0.00282284 -0.128721,0.00282284l-0.36584 0.00296398c-0.0172193,0 -0.0200421,-0.00860965 -0.0200421,-0.0256878l0 -0.714742c0,-0.0314746 0.00860965,-0.0400843 0.0256878,-0.0400843l0.440221 0.00860965c0.108679,0.00296398 0.168665,0.0458711 0.188707,0.0858143 0.0172193,0.0400843 0.0172193,0.0858143 0.0172193,0.108679 0.0026817,0.0313335 0.00846851,0.04573 0.0285107,0.04573 0.0200421,0 0.0256878,-0.0170782 0.0285107,-0.0400843 0.00578682,-0.0342975 0.0115736,-0.202962 0.0143965,-0.231614 0.00846851,-0.0742406 0.022865,-0.108538 0.022865,-0.12858 0,-0.0142553 -0.00860965,-0.0256878 -0.0200421,-0.0256878 -0.0143965,0 -0.0285107,0.0114325 -0.0458711,0.0170782 -0.0283695,0.00860965 -0.0628081,0.00860965 -0.117148,0.0114325 -0.065631,0.00282284 -0.646006,0.00282284 -0.754544,0.00282284 -0.0400843,0 -0.105856,-0.00282284 -0.180097,-0.00564567 -0.0743818,0 -0.157232,-0.00282284 -0.231614,-0.00282284 -0.042766,0 -0.065631,0.00564567 -0.065631,0.0285107 0,0.0172193 0.0200421,0.022865 0.0485528,0.022865 0.0400843,0 0.0886371,0.00282284 0.111502,0.00860965 0.0942828,0.0200421 0.117148,0.0657721 0.122935,0.162878 0.00564567,0.0916011 0.00564567,0.171629 0.00564567,0.606063l0 0.503171c0,0.27438 0,0.488774 -0.0142553,0.608886 -0.0114325,0.0828503 -0.025829,0.1458 -0.0828503,0.157091 -0.025829,0.00578682 -0.0601264,0.0115736 -0.103034,0.0115736 -0.0314746,0 -0.042766,0.00846851 -0.042766,0.022865 0,0.0227238 0.019901,0.0285107 0.0598442,0.0285107 0.108679,0 0.288776,-0.00860965 0.363158,-0.00860965 0.0742406,0 0.254338,0.00860965 0.434435,0.00860965 0.0429071,0 0.0628081,-0.00860965 0.0628081,-0.0285107 0,-0.0143965 -0.0112913,-0.022865 -0.0485528,-0.022865 -0.0399431,0 -0.102892,-0.00578682 -0.142836,-0.0115736 -0.0858143,-0.0112913 -0.102892,-0.0742406 -0.111502,-0.157091 -0.0143965,-0.120112 -0.0143965,-0.334506 -0.0143965,-0.608886l0 -0.231614 0.000141142 0z"/>
  <path id="_9" class="fil0" d="M19.9378 1.39491c0,0.263088 0,0.488915 -0.0143965,0.608886 -0.00846851,0.0828503 -0.0256878,0.1458 -0.0828503,0.157232 -0.0256878,0.00578682 -0.0601264,0.0114325 -0.102892,0.0114325 -0.0344386,0 -0.0458711,0.00860965 -0.0458711,0.022865 0,0.0200421 0.0200421,0.0286518 0.0573036,0.0286518 0.114325,0 0.294281,-0.00860965 0.360194,-0.00860965 0.0798863,0 0.260124,0.00860965 0.44869,0.00860965 0.0314746,0 0.0543396,-0.00860965 0.0543396,-0.0286518 0,-0.0142553 -0.0143965,-0.022865 -0.0458711,-0.022865 -0.042766,0 -0.105715,-0.00564567 -0.145658,-0.0114325 -0.0858143,-0.0114325 -0.102892,-0.0743818 -0.111502,-0.154268 -0.0142553,-0.122935 -0.0142553,-0.348762 -0.0142553,-0.61185l0 -1.1719 0.360194 0.00860965c0.254338,0.00564567 0.331542,0.0856731 0.337188,0.160055l0.00296398 0.0314746c0.00282284,0.042766 0.00846851,0.0570213 0.0313335,0.0570213 0.0172193,0 0.022865,-0.0170782 0.0256878,-0.04573 0,-0.0742406 0.0087508,-0.271557 0.0087508,-0.331542 0,-0.042766 -0.00296398,-0.0599853 -0.022865,-0.0599853 -0.0115736,0 -0.0344386,0.00564567 -0.0772046,0.0142553 -0.0429071,0.00578682 -0.105856,0.0142553 -0.197316,0.0142553l-1.13196 0c-0.0944239,0 -0.202962,-0.00564567 -0.285812,-0.0142553 -0.0715589,-0.00564567 -0.10007,-0.0342975 -0.122935,-0.0342975 -0.0172193,0 -0.025829,0.0172193 -0.0342975,0.0543396 -0.00564567,0.022865 -0.0599853,0.282989 -0.0599853,0.328719 0,0.0314746 0.00564567,0.04573 0.0256878,0.04573 0.0172193,0 0.0256878,-0.0114325 0.0314746,-0.0342975 0.00578682,-0.022865 0.0200421,-0.0571625 0.0485528,-0.10007 0.0429071,-0.0628081 0.111502,-0.0772046 0.277344,-0.0828503l0.425966 -0.0114325 0 1.17204 0 -0.000141142z"/>
  <path id="_10" class="fil0" d="M22.439 2.15255c0.0270992,0.0670424 0.0357089,0.0870845 0.0541985,0.0870845 0.0200421,0 0.0286518,-0.022865 0.0659133,-0.105715 0.0313335,-0.0715589 0.098517,-0.227238 0.189977,-0.435846 0.0772046,-0.175863 0.115877,-0.253067 0.171487,-0.387434 0.0386729,-0.0914599 0.0599853,-0.115736 0.078616,-0.12858 0.0256878,-0.0170782 0.055751,-0.0170782 0.0701475,-0.0170782 0.0142553,0 0.022865,-0.00296398 0.022865,-0.0128439 0,-0.0100211 -0.0115736,-0.0128439 -0.0302044,-0.0128439 -0.042766,0 -0.10995,0.00423426 -0.134226,0.00423426 -0.0186307,0 -0.078616,-0.00423426 -0.150034,-0.00423426 -0.0272404,0 -0.0400843,0.00282284 -0.0400843,0.0142553 0,0.00987993 0.0114325,0.0114325 0.0242764,0.0114325 0.0186307,0 0.0399431,0.00141142 0.0571625,0.00705709 0.0129851,0.0043754 0.0186307,0.0158079 0.0186307,0.0272404 0,0.0128439 -0.00564567,0.0342975 -0.0129851,0.0527871 -0.0341563,0.0944239 -0.22004,0.554546 -0.281437,0.71192l-0.00578682 0 -0.245869 -0.64897c-0.019901,-0.0513756 -0.0327449,-0.0914599 -0.0327449,-0.110091 0,-0.0128439 0.00423426,-0.022865 0.0142553,-0.0299221 0.0114325,-0.00860965 0.0328861,-0.0100211 0.055751,-0.0100211 0.0128439,0 0.0213124,-0.00282284 0.0213124,-0.0128439 0,-0.0100211 -0.0156667,-0.0128439 -0.0327449,-0.0128439 -0.0715589,0 -0.140154,0.00423426 -0.175863,0.00423426 -0.0499642,0 -0.131403,-0.00423426 -0.207196,-0.00423426 -0.0213124,0 -0.0371203,0.00141142 -0.0371203,0.0128439 0,0.00846851 0.0043754,0.0128439 0.0172193,0.0128439 0.0114325,0 0.0342975,0 0.0556099,0.00564567 0.0513756,0.0143965 0.0757932,0.0300632 0.108679,0.108679l0.360194 0.873245 0 0z"/>
  <path id="_11" class="fil0" d="M23.002 2.21536c0.0543396,0 0.0886371,-0.0414957 0.0886371,-0.0914599 0,-0.0501054 -0.0386729,-0.0829914 -0.0872257,-0.0829914 -0.0613967,0 -0.0872257,0.0515168 -0.0872257,0.0872257 0,0.0400843 0.025829,0.0872257 0.0858143,0.0872257z"/>
  <path id="_12" class="fil0" d="M23.5509 1.78516c0.00141142,0.13719 -0.00155256,0.258713 -0.00733938,0.321662 -0.00423426,0.04573 -0.0112913,0.065631 -0.0570213,0.075652 -0.025829,0.00578682 -0.0986582,0.0100211 -0.114325,0.0100211 -0.00578682,0 -0.0115736,0.00423426 -0.0115736,0.0142553 0,0.0100211 0.0087508,0.0128439 0.0242764,0.0128439 0.0916011,0 0.211572,-0.00423426 0.244458,-0.00423426 0.0386729,0 0.130133,0.00423426 0.238671,0.00423426 0.0156667,0 0.022865,-0.00282284 0.022865,-0.0128439 0,-0.0100211 -0.00719824,-0.0142553 -0.0128439,-0.0142553 -0.0114325,0 -0.0728292,-0.00423426 -0.0944239,-0.00860965 -0.04573,-0.0100211 -0.0527871,-0.0313335 -0.0570213,-0.0770635 -0.00578682,-0.0629493 -0.00578682,-0.184472 -0.00578682,-0.321662l0 -0.2645c0,-0.218629 0.00860965,-0.360194 0.00860965,-0.371485 0,-0.0143965 -0.0043754,-0.0300632 -0.0172193,-0.0300632 -0.0112913,0 -0.0241353,0.0100211 -0.0371203,0.0186307 -0.0499642,0.0371203 -0.324344,0.217217 -0.330131,0.22004 -0.00705709,0.00423426 -0.0142553,0.0114325 -0.0142553,0.0200421 0,0.00860965 0.00719824,0.0156667 0.0114325,0.0156667 0.00564567,0 0.0128439,-0.00282284 0.019901,-0.00564567 0.0314746,-0.0129851 0.138742,-0.0685949 0.165842,-0.0685949 0.0214536,0 0.0214536,0.0170782 0.0214536,0.0513756 0,0.0486939 0,0.110091 0,0.187295l0.00155256 0.227238 0 0z"/>
  <polygon class="fil1" points="-0.000141142,4.99416 -0.000141142,4.04343 0.186166,4.04343 0.577411,4.68055 0.577411,4.04343 0.755391,4.04343 0.755391,4.99416 0.563156,4.99416 0.177839,4.36919 0.177839,4.99416 "/>
  <path id="_1_0" class="fil1" d="M0.965693 4.52444c0,-0.0968233 0.0145376,-0.178262 0.0434717,-0.244175 0.0214536,-0.0485528 0.0512345,-0.0921656 0.0886371,-0.130697 0.0374026,-0.0385317 0.0783337,-0.0670424 0.122793,-0.0858143 0.0592796,-0.0249821 0.127733,-0.0376849 0.20522,-0.0376849 0.140154,0 0.252221,0.0436128 0.336482,0.130556 0.0841206,0.0872257 0.126181,0.208325 0.126181,0.36344 0,0.153845 -0.0419191,0.274239 -0.125334,0.3609 -0.0834148,0.0870845 -0.195199,0.130415 -0.334789,0.130415 -0.141283,0 -0.254055,-0.0431894 -0.33747,-0.129709 -0.083556,-0.0862377 -0.125193,-0.205361 -0.125193,-0.35723zm0.197881 -0.00635138c0,0.107691 0.0249821,0.189412 0.0748052,0.245163 0.0498231,0.0556099 0.113055,0.083556 0.189554,0.083556 0.0767812,0 0.13973,-0.0278049 0.188989,-0.0828503 0.0492585,-0.0553276 0.0736761,-0.138178 0.0736761,-0.248551 0,-0.109103 -0.023853,-0.190542 -0.0718412,-0.244175 -0.0478471,-0.0536339 -0.111361,-0.0804509 -0.190824,-0.0804509 -0.0791806,0 -0.143118,0.0270992 -0.19153,0.0814389 -0.0485528,0.0543396 -0.0728292,0.136343 -0.0728292,0.245869z"/>
  <polygon id="_2_1" class="fil1" points="2.29878,4.99416 2.29878,4.20405 2.0172,4.20405 2.0172,4.04343 2.77146,4.04343 2.77146,4.20405 2.4913,4.20405 2.4913,4.99416 "/>
  <path id="_3_2" class="fil1" d="M3.70088 4.99416l-0.207337 0 -0.0821446 -0.216512 -0.381365 0 -0.0790394 0.216512 -0.203527 0 0.369086 -0.950732 0.203385 0 0.380942 0.950732zm-0.352008 -0.377131l-0.132109 -0.351867 -0.128298 0.351867 0.260407 0z"/>
  <path id="_4_3" class="fil1" d="M3.84979 4.99416l0 -0.950732 0.404371 0c0.101622,0 0.17558,0.00860965 0.221593,0.0256878 0.0461534,0.016937 0.0828503,0.0472825 0.110655,0.0908954 0.0275227,0.043754 0.0414957,0.0935771 0.0414957,0.149752 0,0.0717001 -0.0207479,0.130415 -0.062667,0.176992 -0.041778,0.0464357 -0.104163,0.075652 -0.187436,0.0877902 0.0414957,0.0241353 0.0755109,0.0506699 0.102328,0.0797452 0.0269581,0.0289341 0.0633727,0.0804509 0.108962,0.154409l0.115877 0.18546 -0.229497 0 -0.137613 -0.20762c-0.0493997,-0.0736761 -0.0832737,-0.120253 -0.101622,-0.139448 -0.0182073,-0.018913 -0.0372615,-0.0323215 -0.057727,-0.0393786 -0.0206067,-0.00705709 -0.0529282,-0.0105856 -0.0972467,-0.0105856l-0.038814 0 0 0.397032 -0.192659 0zm0.192659 -0.548477l0.141989 0c0.0920245,0 0.149469,-0.00395197 0.172475,-0.0117148 0.0227238,-0.0077628 0.0409311,-0.0213124 0.0536339,-0.0402254 0.0131262,-0.0191953 0.0194776,-0.0430483 0.0194776,-0.0715589 0,-0.0321803 -0.00860965,-0.057727 -0.0255467,-0.077628 -0.0170782,-0.0197599 -0.0412134,-0.0321803 -0.0721235,-0.0372615 -0.0158079,-0.00211713 -0.0625258,-0.0033874 -0.140154,-0.0033874l-0.149752 0 0 0.241776z"/>
  <polygon id="_5_4" class="fil1" points="5.05584,4.99416 5.05584,4.59389 4.70722,4.04343 4.93234,4.04343 5.15718,4.41986 5.37595,4.04343 5.59698,4.04343 5.24836,4.5953 5.24836,4.99416 "/>
  <path id="_6_5" class="fil1" d="M6.08321 4.99416l0 -0.950732 0.307972 0c0.116583,0 0.192518,0.00465768 0.227944,0.0141142 0.0544808,0.0143965 0.0999284,0.0454477 0.136766,0.0932948 0.036838,0.047706 0.0550453,0.109385 0.0550453,0.185178 0,0.0582916 -0.0105856,0.107409 -0.0316158,0.14707 -0.0211713,0.0399431 -0.0479882,0.0711355 -0.0804509,0.0938593 -0.0326038,0.0225827 -0.0657721,0.0376849 -0.0993639,0.0450243 -0.0458711,0.00903308 -0.112067,0.0136908 -0.198728,0.0136908l-0.124911 0 0 0.3585 -0.192518 0 -0.000141142 0zm0.192659 -0.790112l0 0.270851 0.104586 0c0.0755109,0 0.125757,-0.00508111 0.151304,-0.0151022 0.0254055,-0.00987993 0.0453065,-0.0254055 0.059703,-0.0468591 0.0143965,-0.0211713 0.0215947,-0.0458711 0.0215947,-0.0740995 0,-0.0347209 -0.0101622,-0.0632316 -0.0302044,-0.0858143 -0.0204656,-0.0225827 -0.0458711,-0.036838 -0.0770635,-0.0426248 -0.0227238,-0.00409311 -0.0685949,-0.00635138 -0.137613,-0.00635138l-0.0923068 0z"/>
  <path id="_7_6" class="fil1" d="M7.0156 4.04343l0.192659 0 0 0.515168c0,0.0818623 0.00239941,0.13479 0.00705709,0.158926 0.00818623,0.0389552 0.0275227,0.0702886 0.0580093,0.0938593 0.0307689,0.0235707 0.0725469,0.0354266 0.125616,0.0354266 0.0537751,0 0.0945651,-0.0111502 0.121947,-0.0334506 0.0273815,-0.0224416 0.0438951,-0.0496819 0.0493997,-0.0821446 0.00550453,-0.0324626 0.00832737,-0.0862377 0.00832737,-0.161607l0 -0.526177 0.192518 0 0 0.499924c0,0.114184 -0.00493997,0.194917 -0.0153845,0.242058 -0.0104445,0.0472825 -0.0294986,0.0870845 -0.0574447,0.119547 -0.0275227,0.0326038 -0.0647841,0.0581504 -0.11122,0.0774869 -0.046718,0.0191953 -0.107409,0.0289341 -0.182355,0.0289341 -0.0904719,0 -0.159067,-0.0104445 -0.205785,-0.0313335 -0.046718,-0.0211713 -0.0836971,-0.0484117 -0.110796,-0.0818623 -0.0272404,-0.0337329 -0.0450243,-0.0687361 -0.0536339,-0.105574 -0.0125616,-0.0544808 -0.0187719,-0.135073 -0.0187719,-0.241494l0 -0.507687 -0.000141142 0z"/>
  <path id="_8_7" class="fil1" d="M8.02123 4.04343l0.380236 0c0.0755109,0 0.131403,0.00296398 0.168382,0.00931536 0.0372615,0.00635138 0.0701475,0.0194776 0.0993639,0.0390963 0.0293575,0.019901 0.0534928,0.0462945 0.0731115,0.0791806 0.0194776,0.0330272 0.0290752,0.0702886 0.0290752,0.11122 0,0.0441774 -0.0118559,0.0852497 -0.0357089,0.122088 -0.023853,0.0372615 -0.0564567,0.0647841 -0.0973879,0.0834148 0.057727,0.0170782 0.102046,0.0458711 0.133097,0.08652 0.0310512,0.04079 0.0465768,0.0886371 0.0465768,0.143682 0,0.0434717 -0.0100211,0.085532 -0.0300632,0.126322 -0.0201833,0.0410723 -0.0475648,0.0738172 -0.082568,0.0983759 -0.0347209,0.0242764 -0.077628,0.0393786 -0.128863,0.0450243 -0.0317569,0.0033874 -0.109103,0.00564567 -0.231332,0.00649253l-0.323921 0 0 -0.950732 0 0zm0.192518 0.157938l0 0.219052 0.125757 0c0.0745229,0 0.120959,-0.000987993 0.139166,-0.00324626 0.0327449,-0.00366969 0.058715,-0.014961 0.0774869,-0.033874 0.0187719,-0.0187719 0.0280872,-0.0433306 0.0280872,-0.0738172 0,-0.0296398 -0.00818623,-0.0532105 -0.0242764,-0.0715589 -0.0162313,-0.0183484 -0.0403666,-0.0294986 -0.0721235,-0.0331683 -0.0190542,-0.00225827 -0.0738172,-0.0033874 -0.163866,-0.0033874l-0.110232 0 0 0zm0 0.377131l0 0.255043 0.17798 0c0.0690184,0 0.113055,-0.00197599 0.131685,-0.00578682 0.0285107,-0.00536339 0.0517991,-0.0180662 0.0695829,-0.0381083 0.017925,-0.0203244 0.0270992,-0.0471414 0.0270992,-0.0810154 0,-0.0287929 -0.00691595,-0.0529282 -0.020889,-0.0728292 -0.0136908,-0.019901 -0.0337329,-0.0344386 -0.0598442,-0.0436128 -0.0262524,-0.00903308 -0.0831326,-0.0136908 -0.170499,-0.0136908l-0.155115 0 0 0z"/>
  <polygon id="_9_8" class="fil1" points="9.03209,4.99416 9.03209,4.05134 9.22461,4.05134 9.22461,4.83354 9.70139,4.83354 9.70139,4.99416 "/>
  <polygon id="_10_9" class="fil1" points="9.87781,4.99416 9.87781,4.04343 10.0705,4.04343 10.0705,4.99416 "/>
  <path id="_11_10" class="fil1" d="M10.9083 4.64357l0.185884 0.0571625c-0.0285107,0.104727 -0.0760755,0.182355 -0.142553,0.233166 -0.0663367,0.0506699 -0.150457,0.0762166 -0.252503,0.0762166 -0.126322,0 -0.230202,-0.0431894 -0.3115,-0.129568 -0.0812977,-0.0862377 -0.121947,-0.204232 -0.121947,-0.354125 0,-0.158079 0.04079,-0.281296 0.122511,-0.368804 0.08158,-0.0877902 0.189271,-0.131544 0.322509,-0.131544 0.116301,0 0.210866,0.0345798 0.283413,0.103316 0.0434717,0.04079 0.075652,0.0992227 0.0973879,0.17558l-0.189836 0.0451654c-0.0112913,-0.0491174 -0.0347209,-0.0880725 -0.0702886,-0.116724 -0.03585,-0.0285107 -0.0793217,-0.0426248 -0.130274,-0.0426248 -0.0705709,0 -0.127875,0.0251233 -0.171629,0.0757932 -0.0440363,0.0505288 -0.0659133,0.132391 -0.0659133,0.245728 0,0.119971 0.0215947,0.205644 0.0647841,0.256596 0.0433306,0.0509522 0.099505,0.0764989 0.168806,0.0764989 0.0510934,0 0.0951296,-0.0162313 0.131827,-0.0486939 0.036838,-0.0324626 0.0633727,-0.0834148 0.0793217,-0.153139l0 0z"/>
  <path id="_12_11" class="fil1" d="M12.4817 4.99416l-0.207337 0 -0.0821446 -0.216512 -0.381365 0 -0.0788983 0.216512 -0.203668 0 0.369227 -0.950732 0.203385 0 0.380801 0.950732zm-0.351867 -0.377131l-0.132109 -0.351867 -0.128298 0.351867 0.260407 0z"/>
  <path id="_13" class="fil1" d="M12.5805 4.68605l0.187154 -0.0186307c0.0112913,0.062667 0.033874,0.108397 0.0681715,0.137896 0.0341563,0.0293575 0.080592,0.0440363 0.138742,0.0440363 0.0615379,0 0.107974,-0.0129851 0.139166,-0.0390963 0.0313335,-0.0261112 0.0470002,-0.056739 0.0470002,-0.0917422 0,-0.0225827 -0.00663367,-0.0414957 -0.0197599,-0.0574447 -0.0129851,-0.0158079 -0.0359912,-0.0294986 -0.0687361,-0.0409311 -0.0224416,-0.00804509 -0.0732526,-0.0217358 -0.152998,-0.0416369 -0.102469,-0.0256878 -0.17431,-0.0571625 -0.215806,-0.0945651 -0.0581504,-0.0523636 -0.0870845,-0.116301 -0.0870845,-0.191953 0,-0.0482705 0.0135496,-0.0940005 0.04079,-0.136202 0.0275227,-0.0422014 0.0669012,-0.0743818 0.118559,-0.096541 0.0515168,-0.0220181 0.113478,-0.0331683 0.18659,-0.0331683 0.1187,0 0.208325,0.0263935 0.268311,0.0791806 0.0602676,0.0529282 0.0917422,0.123358 0.0947062,0.211572l-0.192518 0.00663367c-0.00818623,-0.0491174 -0.0256878,-0.0842617 -0.0523636,-0.105715 -0.026817,-0.0215947 -0.0671835,-0.0323215 -0.120676,-0.0323215 -0.0553276,0 -0.0986582,0.0114325 -0.129851,0.0344386 -0.0201833,0.0148199 -0.0304866,0.0345798 -0.0304866,0.0594207 0,0.0225827 0.00959765,0.041778 0.0286518,0.057727 0.0239941,0.0206067 0.0827091,0.0419191 0.175863,0.0640784 0.0932948,0.0217358 0.162031,0.044742 0.206491,0.0681715 0.044742,0.023853 0.079604,0.0558922 0.104868,0.0968233 0.0252644,0.0409311 0.0379672,0.0914599 0.0379672,0.151445 0,0.0543396 -0.0151022,0.105574 -0.0454477,0.152998 -0.0303455,0.047706 -0.0731115,0.0831326 -0.128439,0.105998 -0.0553276,0.0232884 -0.124205,0.034862 -0.206773,0.034862 -0.120112,0 -0.21256,-0.0276638 -0.276779,-0.0831326 -0.0645018,-0.0554688 -0.102751,-0.136202 -0.115313,-0.242199z"/>
  <path id="_14" class="fil1" d="M13.5128 4.68605l0.187154 -0.0186307c0.0112913,0.062667 0.033874,0.108397 0.0683127,0.137896 0.0341563,0.0293575 0.080592,0.0440363 0.138742,0.0440363 0.0613967,0 0.107974,-0.0129851 0.139166,-0.0390963 0.0313335,-0.0261112 0.0468591,-0.056739 0.0468591,-0.0917422 0,-0.0225827 -0.00663367,-0.0414957 -0.0196187,-0.0574447 -0.0131262,-0.0158079 -0.0361323,-0.0294986 -0.0688772,-0.0409311 -0.0223004,-0.00804509 -0.0731115,-0.0217358 -0.152857,-0.0416369 -0.102469,-0.0256878 -0.174451,-0.0571625 -0.215806,-0.0945651 -0.0581504,-0.0523636 -0.0872257,-0.116301 -0.0872257,-0.191953 0,-0.0482705 0.0136908,-0.0940005 0.0409311,-0.136202 0.0275227,-0.0422014 0.0669012,-0.0743818 0.118418,-0.096541 0.0516579,-0.0220181 0.113619,-0.0331683 0.18659,-0.0331683 0.118841,0 0.208467,0.0263935 0.268452,0.0791806 0.0602676,0.0529282 0.0916011,0.123358 0.0947062,0.211572l-0.192518 0.00663367c-0.00818623,-0.0491174 -0.0256878,-0.0842617 -0.0525048,-0.105715 -0.026817,-0.0215947 -0.0670424,-0.0323215 -0.120535,-0.0323215 -0.0554688,0 -0.0987993,0.0114325 -0.129992,0.0344386 -0.0201833,0.0148199 -0.0303455,0.0345798 -0.0303455,0.0594207 0,0.0225827 0.00945651,0.041778 0.0286518,0.057727 0.0239941,0.0206067 0.0827091,0.0419191 0.175863,0.0640784 0.0931536,0.0217358 0.162031,0.044742 0.206491,0.0681715 0.044742,0.023853 0.079604,0.0558922 0.104868,0.0968233 0.0252644,0.0409311 0.037826,0.0914599 0.037826,0.151445 0,0.0543396 -0.014961,0.105574 -0.0453065,0.152998 -0.0303455,0.047706 -0.0731115,0.0831326 -0.128439,0.105998 -0.0553276,0.0232884 -0.124346,0.034862 -0.206773,0.034862 -0.120253,0 -0.21256,-0.0276638 -0.27692,-0.0831326 -0.0643607,-0.0554688 -0.10261,-0.136202 -0.115313,-0.242199z"/>
  <polygon id="_15" class="fil1" points="14.4889,4.99416 14.4889,4.04343 14.6816,4.04343 14.6816,4.99416 "/>
  <path id="_16" class="fil1" d="M14.8608 4.68605l0.187154 -0.0186307c0.0112913,0.062667 0.0337329,0.108397 0.0681715,0.137896 0.0341563,0.0293575 0.080592,0.0440363 0.138742,0.0440363 0.0613967,0 0.107974,-0.0129851 0.139166,-0.0390963 0.0313335,-0.0261112 0.0468591,-0.056739 0.0468591,-0.0917422 0,-0.0225827 -0.00663367,-0.0414957 -0.0196187,-0.0574447 -0.0131262,-0.0158079 -0.0359912,-0.0294986 -0.0687361,-0.0409311 -0.0224416,-0.00804509 -0.0732526,-0.0217358 -0.152998,-0.0416369 -0.102469,-0.0256878 -0.17431,-0.0571625 -0.215806,-0.0945651 -0.0581504,-0.0523636 -0.0870845,-0.116301 -0.0870845,-0.191953 0,-0.0482705 0.0135496,-0.0940005 0.04079,-0.136202 0.0275227,-0.0422014 0.0669012,-0.0743818 0.118559,-0.096541 0.0515168,-0.0220181 0.113478,-0.0331683 0.186448,-0.0331683 0.118841,0 0.208467,0.0263935 0.268452,0.0791806 0.0602676,0.0529282 0.0917422,0.123358 0.0947062,0.211572l-0.192518 0.00663367c-0.00818623,-0.0491174 -0.0256878,-0.0842617 -0.0523636,-0.105715 -0.026817,-0.0215947 -0.0671835,-0.0323215 -0.120676,-0.0323215 -0.0553276,0 -0.0986582,0.0114325 -0.129851,0.0344386 -0.0201833,0.0148199 -0.0304866,0.0345798 -0.0304866,0.0594207 0,0.0225827 0.00959765,0.041778 0.0286518,0.057727 0.0239941,0.0206067 0.0827091,0.0419191 0.175863,0.0640784 0.0932948,0.0217358 0.162031,0.044742 0.206491,0.0681715 0.044742,0.023853 0.079604,0.0558922 0.104868,0.0968233 0.0252644,0.0409311 0.0379672,0.0914599 0.0379672,0.151445 0,0.0543396 -0.0151022,0.105574 -0.0454477,0.152998 -0.0303455,0.047706 -0.0731115,0.0831326 -0.128439,0.105998 -0.0553276,0.0232884 -0.124205,0.034862 -0.206773,0.034862 -0.120112,0 -0.21256,-0.0276638 -0.276779,-0.0831326 -0.0645018,-0.0554688 -0.102751,-0.136202 -0.115313,-0.242199z"/>
  <polygon id="_17" class="fil1" points="16.0571,4.99416 16.0571,4.20405 15.7757,4.20405 15.7757,4.04343 16.5298,4.04343 16.5298,4.20405 16.2498,4.20405 16.2498,4.99416 "/>
  <path id="_18" class="fil1" d="M17.0197 4.68605l0.187154 -0.0186307c0.0112913,0.062667 0.033874,0.108397 0.0681715,0.137896 0.0342975,0.0293575 0.080592,0.0440363 0.138742,0.0440363 0.0615379,0 0.107974,-0.0129851 0.139166,-0.0390963 0.0313335,-0.0261112 0.0470002,-0.056739 0.0470002,-0.0917422 0,-0.0225827 -0.00663367,-0.0414957 -0.0197599,-0.0574447 -0.0129851,-0.0158079 -0.0359912,-0.0294986 -0.0687361,-0.0409311 -0.0224416,-0.00804509 -0.0732526,-0.0217358 -0.152998,-0.0416369 -0.102328,-0.0256878 -0.17431,-0.0571625 -0.215665,-0.0945651 -0.0582916,-0.0523636 -0.0872257,-0.116301 -0.0872257,-0.191953 0,-0.0482705 0.0136908,-0.0940005 0.0409311,-0.136202 0.0273815,-0.0422014 0.0669012,-0.0743818 0.118418,-0.096541 0.0515168,-0.0220181 0.113478,-0.0331683 0.18659,-0.0331683 0.1187,0 0.208467,0.0263935 0.268452,0.0791806 0.0601264,0.0529282 0.0916011,0.123358 0.0947062,0.211572l-0.192518 0.00663367c-0.00832737,-0.0491174 -0.025829,-0.0842617 -0.0525048,-0.105715 -0.026817,-0.0215947 -0.0671835,-0.0323215 -0.120676,-0.0323215 -0.0553276,0 -0.0986582,0.0114325 -0.129851,0.0344386 -0.0201833,0.0148199 -0.0303455,0.0345798 -0.0303455,0.0594207 0,0.0225827 0.00945651,0.041778 0.0285107,0.057727 0.0241353,0.0206067 0.0827091,0.0419191 0.175863,0.0640784 0.0932948,0.0217358 0.162031,0.044742 0.206491,0.0681715 0.044742,0.023853 0.0797452,0.0558922 0.104868,0.0968233 0.0252644,0.0409311 0.0379672,0.0914599 0.0379672,0.151445 0,0.0543396 -0.0151022,0.105574 -0.0454477,0.152998 -0.0303455,0.047706 -0.0729703,0.0831326 -0.128298,0.105998 -0.0553276,0.0232884 -0.124346,0.034862 -0.206914,0.034862 -0.120112,0 -0.212419,-0.0276638 -0.276779,-0.0831326 -0.0645018,-0.0554688 -0.102751,-0.136202 -0.115313,-0.242199z"/>
  <path id="_19" class="fil1" d="M17.9627 4.52444c0,-0.0968233 0.0145376,-0.178262 0.0434717,-0.244175 0.0214536,-0.0485528 0.0512345,-0.0921656 0.0886371,-0.130697 0.0374026,-0.0385317 0.0781926,-0.0670424 0.122793,-0.0858143 0.0592796,-0.0249821 0.127733,-0.0376849 0.20522,-0.0376849 0.140154,0 0.252221,0.0436128 0.336482,0.130556 0.0841206,0.0872257 0.126181,0.208325 0.126181,0.36344 0,0.153845 -0.0419191,0.274239 -0.125334,0.3609 -0.0834148,0.0870845 -0.195199,0.130415 -0.334789,0.130415 -0.141424,0 -0.254055,-0.0431894 -0.33747,-0.129709 -0.083556,-0.0862377 -0.125193,-0.205361 -0.125193,-0.35723zm0.197881 -0.00635138c0,0.107691 0.0249821,0.189412 0.0748052,0.245163 0.0498231,0.0556099 0.113055,0.083556 0.189554,0.083556 0.0767812,0 0.13973,-0.0278049 0.188989,-0.0828503 0.0491174,-0.0553276 0.0736761,-0.138178 0.0736761,-0.248551 0,-0.109103 -0.023853,-0.190542 -0.0719824,-0.244175 -0.047706,-0.0536339 -0.11122,-0.0804509 -0.190683,-0.0804509 -0.0791806,0 -0.143259,0.0270992 -0.19153,0.0814389 -0.0485528,0.0543396 -0.0728292,0.136343 -0.0728292,0.245869z"/>
  <polygon id="_20" class="fil1" points="19.082,4.99416 19.082,4.04343 19.7353,4.04343 19.7353,4.20405 19.2746,4.20405 19.2746,4.42974 19.6729,4.42974 19.6729,4.5905 19.2746,4.5905 19.2746,4.99416 "/>
  <polygon id="_21" class="fil1" points="20.0704,4.99416 19.8468,4.04343 20.0447,4.04343 20.1861,4.6965 20.3596,4.04343 20.5885,4.04343 20.7545,4.7075 20.8992,4.04343 21.0924,4.04343 20.8633,4.99416 20.6578,4.99416 20.4704,4.28323 20.2815,4.99416 "/>
  <path id="_22" class="fil1" d="M22.0231 4.99416l-0.207337 0 -0.0822857 -0.216512 -0.381224 0 -0.0790394 0.216512 -0.203527 0 0.369086 -0.950732 0.203385 0 0.380942 0.950732zm-0.352008 -0.377131l-0.131968 -0.351867 -0.128439 0.351867 0.260407 0z"/>
  <path id="_23" class="fil1" d="M22.172 4.99416l0 -0.950732 0.404371 0c0.101622,0 0.17558,0.00860965 0.221593,0.0256878 0.0461534,0.016937 0.0828503,0.0472825 0.110655,0.0908954 0.0275227,0.043754 0.0414957,0.0935771 0.0414957,0.149752 0,0.0717001 -0.0207479,0.130415 -0.062667,0.176992 -0.041778,0.0464357 -0.104163,0.075652 -0.187436,0.0877902 0.0414957,0.0241353 0.0755109,0.0506699 0.102328,0.0797452 0.0269581,0.0289341 0.0633727,0.0804509 0.108962,0.154409l0.115877 0.18546 -0.229356 0 -0.137754 -0.20762c-0.0493997,-0.0736761 -0.0832737,-0.120253 -0.101622,-0.139448 -0.0182073,-0.018913 -0.0372615,-0.0323215 -0.057727,-0.0393786 -0.0206067,-0.00705709 -0.0529282,-0.0105856 -0.0972467,-0.0105856l-0.038814 0 0 0.397032 -0.192659 0zm0.192518 -0.548477l0.14213 0c0.0920245,0 0.149469,-0.00395197 0.172334,-0.0117148 0.022865,-0.0077628 0.0410723,-0.0213124 0.0537751,-0.0402254 0.0131262,-0.0191953 0.0194776,-0.0430483 0.0194776,-0.0715589 0,-0.0321803 -0.00860965,-0.057727 -0.0255467,-0.077628 -0.0170782,-0.0197599 -0.0412134,-0.0321803 -0.0721235,-0.0372615 -0.0158079,-0.00211713 -0.0625258,-0.0033874 -0.140154,-0.0033874l-0.149893 0 0 0.241776z"/>
  <polygon id="_24" class="fil1" points="23.1776,4.99416 23.1776,4.04343 23.8813,4.04343 23.8813,4.20405 23.3701,4.20405 23.3701,4.4152 23.8455,4.4152 23.8455,4.57582 23.3701,4.57582 23.3701,4.83354 23.9,4.83354 23.9,4.99416 "/>
 </g>
</svg>
