<?xml version="1.0" encoding="UTF-8"?>
<!DOCTYPE svg PUBLIC "-//W3C//DTD SVG 1.1//EN" "http://www.w3.org/Graphics/SVG/1.1/DTD/svg11.dtd">
<!-- Creator: CorelDRAW -->
<svg xmlns="http://www.w3.org/2000/svg" xml:space="preserve" width="33px" height="33px" style="shape-rendering:geometricPrecision; text-rendering:geometricPrecision; image-rendering:optimizeQuality; fill-rule:evenodd; clip-rule:evenodd"
viewBox="0 0 4.59877 4.59877"
 xmlns:xlink="http://www.w3.org/1999/xlink">
 <defs>
  <style type="text/css">
   <![CDATA[
    .fil0 {fill:#FEFEFE;fill-rule:nonzero}
    .fil1 {fill:white;fill-rule:nonzero}
   ]]>
  </style>
 </defs>
 <g id="Layer_x0020_1">
  <metadata id="CorelCorpID_0Corel-Layer"/>
  <path class="fil0" d="M2.29938 0c0.634426,0 1.20948,0.25751 1.62559,0.673463l0.000164019 0.000164019 0.000164019 0.000164019c0.415953,0.416117 0.673463,0.991168 0.673463,1.62559 0,0.634426 -0.25751,1.20948 -0.673463,1.62559l-0.000164019 0.000164019 -0.000164019 0.000164019c-0.416117,0.415953 -0.991168,0.673463 -1.62559,0.673463 -0.634426,0 -1.20948,-0.25751 -1.62559,-0.673463l-0.000164019 -0.000164019 -0.000164019 -0.000164019c-0.415953,-0.416117 -0.673463,-0.991168 -0.673463,-1.62559 0,-0.634426 0.25751,-1.20948 0.673463,-1.62559l0.000164019 -0.000164019 0.000164019 -0.000164019c0.416117,-0.415953 0.991168,-0.673463 1.62559,-0.673463zm1.5098 0.78926c-0.386101,-0.386265 -0.920148,-0.625241 -1.5098,-0.625241 -0.589649,0 -1.1237,0.238976 -1.5098,0.625241l-0.000328038 0.000328038c-0.386265,0.386101 -0.625241,0.920148 -0.625241,1.5098 0,0.589649 0.238976,1.1237 0.625241,1.5098l0.000328038 0.000328038c0.386101,0.386265 0.920148,0.625241 1.5098,0.625241 0.589649,0 1.1237,-0.238976 1.5098,-0.625241l0.000328038 -0.000328038c0.386265,-0.386101 0.625241,-0.920148 0.625241,-1.5098 0,-0.589649 -0.238976,-1.1237 -0.625241,-1.5098l-0.000328038 -0.000328038z"/>
  <path class="fil1" d="M1.49225 1.04382l1.61428 0c0.103988,0 0.198463,0.042809 0.266859,0.111205 0.068396,0.068396 0.111205,0.163363 0.111205,0.267023l0 1.17159c0,0.10366 -0.042809,0.198299 -0.111205,0.266859l-0.000164019 0.000164019 0.000164019 0c-0.068396,0.068396 -0.163035,0.111205 -0.266859,0.111205l-0.888656 0 -0.331319 0.549464c-0.0196823,0.0326398 -0.0624913,0.0433011 -0.0951311,0.0236188 -0.0178781,-0.0108253 -0.0291954,-0.0285393 -0.0324758,-0.0477296l-0.000164019 0 -0.0905386 -0.525353 -0.175993 0c-0.103988,0 -0.198627,-0.042809 -0.267023,-0.111205 -0.068396,-0.068396 -0.111205,-0.163035 -0.111205,-0.267023l0 -1.17159c0,-0.10366 0.042809,-0.198627 0.111205,-0.267023 0.068396,-0.068396 0.163035,-0.111205 0.267023,-0.111205zm1.61428 0.139088l-1.61428 0c-0.0657717,0 -0.125803,0.0270632 -0.16894,0.0702002 -0.043137,0.043137 -0.0702002,0.103168 -0.0702002,0.16894l0 1.17159c0,0.0657717 0.0270632,0.125803 0.0702002,0.16894 0.043137,0.043137 0.103168,0.0702002 0.16894,0.0702002l0.234383 0 0 0.000164019c0.0332959,0 0.0626553,0.0239468 0.068396,0.0577347l0.068888 0.399715 0.25259 -0.419069c0.0114813,-0.0227987 0.0351001,-0.0385445 0.0623273,-0.0385445l0.927692 0c0.0656077,0 0.125639,-0.0270632 0.168776,-0.0702002l0 0.000164019c0.043137,-0.0433011 0.0702002,-0.103332 0.0702002,-0.169104l0 -1.17159c0,-0.0657717 -0.0270632,-0.125803 -0.0702002,-0.16894 -0.043137,-0.043137 -0.103004,-0.0702002 -0.168776,-0.0702002z"/>
 </g>
</svg>
