<?xml version="1.0" encoding="UTF-8"?>
<!DOCTYPE svg PUBLIC "-//W3C//DTD SVG 1.1//EN" "http://www.w3.org/Graphics/SVG/1.1/DTD/svg11.dtd">
<!-- Creator: CorelDRAW -->
<svg xmlns="http://www.w3.org/2000/svg" xml:space="preserve" width="33px" height="33px" style="shape-rendering:geometricPrecision; text-rendering:geometricPrecision; image-rendering:optimizeQuality; fill-rule:evenodd; clip-rule:evenodd"
viewBox="0 0 69.3594 69.3594"
 xmlns:xlink="http://www.w3.org/1999/xlink">
 <defs>
  <style type="text/css">
   <![CDATA[
    .fil0 {fill:#FEFEFE;fill-rule:nonzero}
    .fil1 {fill:white;fill-rule:nonzero}
   ]]>
  </style>
 </defs>
 <g id="Layer_x0020_1">
  <metadata id="CorelCorpID_0Corel-Layer"/>
  <path class="fil0" d="M34.6797 0c9.56852,0 18.2415,3.88381 24.5175,10.1573l0.00247376 0.00247376 0.00247376 0.00247376c6.27346,6.27594 10.1573,14.949 10.1573,24.5175 0,9.56852 -3.88381,18.2415 -10.1573,24.5175l-0.00247376 0.00247376 -0.00247376 0.00247376c-6.27594,6.27346 -14.949,10.1573 -24.5175,10.1573 -9.56852,0 -18.2415,-3.88381 -24.5175,-10.1573l-0.00247376 -0.00247376 -0.00247376 -0.00247376c-6.27346,-6.27594 -10.1573,-14.949 -10.1573,-24.5175 0,-9.56852 3.88381,-18.2415 10.1573,-24.5175l0.00247376 -0.00247376 0.00247376 -0.00247376c6.27594,-6.27346 14.949,-10.1573 24.5175,-10.1573zm22.771 11.9037c-5.82324,-5.82571 -13.8778,-9.42999 -22.771,-9.42999 -8.89318,0 -16.9478,3.60427 -22.771,9.42999l-0.00494753 0.00494753c-5.82571,5.82324 -9.42999,13.8778 -9.42999,22.771 0,8.89318 3.60427,16.9478 9.42999,22.771l0.00494753 0.00494753c5.82324,5.82571 13.8778,9.42999 22.771,9.42999 8.89318,0 16.9478,-3.60427 22.771,-9.42999l0.00494753 -0.00494753c5.82571,-5.82324 9.42999,-13.8778 9.42999,-22.771 0,-8.89318 -3.60427,-16.9478 -9.42999,-22.771l-0.00494753 -0.00494753z"/>
  <path class="fil1" d="M30.217 41.5493c0.0148426,-1.96912 0.371064,-3.45337 1.06867,-4.4503 0.697601,-0.996927 1.96417,-2.13733 3.8096,-3.43111 0.952399,-0.598651 1.70195,-1.33088 2.24865,-2.21154 0.551649,-0.888081 0.821289,-1.89738 0.821289,-3.04768 0,-1.19235 -0.319115,-2.14475 -0.95982,-2.8572 -0.640705,-0.712444 -1.54858,-1.06372 -2.72856,-1.06372 -0.952399,0 -1.744,0.291904 -2.38471,0.873238 -0.638231,0.581334 -0.974663,1.44715 -1.00187,2.59745l-7.0057 0 -0.042054 -0.123688c-0.0445277,-2.96109 0.893028,-5.17759 2.82009,-6.66184 1.92954,-1.48426 4.46762,-2.22639 7.61424,-2.22639 3.38163,0 6.0434,0.850975 7.97789,2.55292 1.9419,1.70937 2.90915,4.0075 2.90915,6.90922 0,1.77369 -0.521964,3.4039 -1.58321,4.89558 -1.0563,1.48921 -2.40202,2.66672 -4.03718,3.51769 -0.910345,0.598651 -1.52631,1.23688 -1.84048,1.92954 -0.319115,0.69018 -0.47991,1.62031 -0.47991,2.79783l-7.20607 0zm7.18381 8.86597l-7.16154 0 0 -5.7515 7.16154 0 0 5.7515z"/>
 </g>
</svg>
