<?xml version="1.0" encoding="UTF-8"?>
<!DOCTYPE svg PUBLIC "-//W3C//DTD SVG 1.1//EN" "http://www.w3.org/Graphics/SVG/1.1/DTD/svg11.dtd">
<!-- Creator: CorelDRAW -->
<svg xmlns="http://www.w3.org/2000/svg" xml:space="preserve" width="33px" height="33px" style="shape-rendering:geometricPrecision; text-rendering:geometricPrecision; image-rendering:optimizeQuality; fill-rule:evenodd; clip-rule:evenodd"
viewBox="0 0 2.34106 2.34106"
 xmlns:xlink="http://www.w3.org/1999/xlink">
 <defs>
  <style type="text/css">
   <![CDATA[
    .fil0 {fill:#FEFEFE;fill-rule:nonzero}
    .fil1 {fill:white;fill-rule:nonzero}
   ]]>
  </style>
 </defs>
 <g id="Layer_x0020_1">
  <metadata id="CorelCorpID_0Corel-Layer"/>
  <path class="fil0" d="M1.17053 0c0.322963,0 0.6157,0.131089 0.82753,0.342835l8.34961e-005 8.34961e-005 8.34961e-005 8.34961e-005c0.211746,0.21183 0.342835,0.504567 0.342835,0.82753 0,0.322963 -0.131089,0.6157 -0.342835,0.82753l-8.34961e-005 8.34961e-005 -8.34961e-005 8.34961e-005c-0.21183,0.211746 -0.504567,0.342835 -0.82753,0.342835 -0.322963,0 -0.6157,-0.131089 -0.82753,-0.342835l-8.34961e-005 -8.34961e-005 -8.34961e-005 -8.34961e-005c-0.211746,-0.21183 -0.342835,-0.504567 -0.342835,-0.82753 0,-0.322963 0.131089,-0.6157 0.342835,-0.82753l8.34961e-005 -8.34961e-005 8.34961e-005 -8.34961e-005c0.21183,-0.211746 0.504567,-0.342835 0.82753,-0.342835zm0.768582 0.401783c-0.19655,-0.196633 -0.468413,-0.318287 -0.768582,-0.318287 -0.300169,0 -0.572032,0.121654 -0.768582,0.318287l-0.000166992 0.000166992c-0.196633,0.19655 -0.318287,0.468413 -0.318287,0.768582 0,0.300169 0.121654,0.572032 0.318287,0.768582l0.000166992 0.000166992c0.19655,0.196633 0.468413,0.318287 0.768582,0.318287 0.300169,0 0.572032,-0.121654 0.768582,-0.318287l0.000166992 -0.000166992c0.196633,-0.19655 0.318287,-0.468413 0.318287,-0.768582 0,-0.300169 -0.121654,-0.572032 -0.318287,-0.768582l-0.000166992 -0.000166992z"/>
  <g id="_191983696">
   <path id="_191983840" class="fil1" d="M1.20234 1.13713l0.554915 -0.0280547c0.0175342,-0.000751465 0.0325635,0.0127749 0.0333149,0.0303091l0 0.000166992 0.000667969 0.0149458 0 0.00108545 0.000166992 0.0147788 0 0.000250488 8.34961e-005 0c0,0.171418 -0.0696358,0.326804 -0.181938,0.439106l-0.00150293 0.00141943c-0.112302,0.111467 -0.267021,0.180435 -0.437603,0.180435 -0.171334,0 -0.326637,-0.0695523 -0.439023,-0.181855l-8.34961e-005 -8.34961e-005 -0.00108545 -0.00108545c-0.111634,-0.112302 -0.180769,-0.267188 -0.180769,-0.437937 0,-0.171334 0.0695523,-0.326637 0.181855,-0.439023m0.996276 0.44278l-0.55383 0.0279712 -0.00333984 0.000166992c-0.0175342,0 -0.0318955,-0.0143613 -0.0318955,-0.0318955l0 -0.556335c-0.141108,0.00793213 -0.268356,0.0685503 -0.362123,0.162316 -0.100613,0.100696 -0.163151,0.240135 -0.163151,0.394018 0,0.153883 0.0625386,0.293322 0.163151,0.394018 0.100696,0.100613 0.240135,0.163151 0.394018,0.163151 0.153215,0 0.292069,-0.0618706 0.392682,-0.161732l0.00133594 -0.00141943c0.0999448,-0.0999448 0.162149,-0.237964 0.163151,-0.390261zm-0.996276 -0.442863c0.112302,-0.112302 0.267689,-0.181938 0.439106,-0.181938 0.0175342,0 0.0318955,0.0143613 0.0318955,0.0318955l0 0.00166992 0 0.553997m-0.471002 -0.405541l0 -8.34961e-005"/>
   <path id="_191983792" class="fil1" d="M1.23224 1.07167l0 -0.00183691 0.00375732 -0.480938c0,-0.0175342 0.0143613,-0.0317285 0.0318955,-0.0317285l0.0064292 0.000667969c0.128167,0.0207905 0.24289,0.0784863 0.331146,0.162984l0.00133594 0.00133594c0.086836,0.0835796 0.148122,0.193627 0.171585,0.31979 0.00317285,0.0172837 -0.00826611,0.0338994 -0.0255498,0.0370723l-0.0042583 0.000500977 -0.483025 0.0240469c-0.0175342,0.000751465 -0.0325635,-0.0127749 -0.0333149,-0.0303091l0 -0.00158643zm0.0670474 -0.444283l-0.00317285 0.410884 0.411803 -0.02054c-0.0250488,-0.0977739 -0.076065,-0.18319 -0.145116,-0.249737l-0.00141943 -0.00125244c-0.0709717,-0.0678823 -0.161147,-0.116477 -0.262094,-0.139355zm-0.0264683 -0.0698027l0.00150293 0.000250488"/>
  </g>
 </g>
</svg>
