<?xml version="1.0" encoding="UTF-8"?>
<!DOCTYPE svg PUBLIC "-//W3C//DTD SVG 1.1//EN" "http://www.w3.org/Graphics/SVG/1.1/DTD/svg11.dtd">
<!-- Creator: CorelDRAW -->
<svg xmlns="http://www.w3.org/2000/svg" xml:space="preserve" width="33px" height="33px" style="shape-rendering:geometricPrecision; text-rendering:geometricPrecision; image-rendering:optimizeQuality; fill-rule:evenodd; clip-rule:evenodd"
viewBox="0 0 3.10267 3.10267"
 xmlns:xlink="http://www.w3.org/1999/xlink">
 <defs>
  <style type="text/css">
   <![CDATA[
    .fil0 {fill:#FEFEFE;fill-rule:nonzero}
    .fil1 {fill:white;fill-rule:nonzero}
   ]]>
  </style>
 </defs>
 <g id="Layer_x0020_1">
  <metadata id="CorelCorpID_0Corel-Layer"/>
  <path class="fil0" d="M1.55134 0c0.428031,0 0.816003,0.173735 1.09675,0.454368l0.00011066 0.00011066 0.00011066 0.00011066c0.280633,0.280743 0.454368,0.668716 0.454368,1.09675 0,0.428031 -0.173735,0.816003 -0.454368,1.09675l-0.00011066 0.00011066 -0.00011066 0.00011066c-0.280743,0.280633 -0.668716,0.454368 -1.09675,0.454368 -0.428031,0 -0.816003,-0.173735 -1.09675,-0.454368l-0.00011066 -0.00011066 -0.00011066 -0.00011066c-0.280633,-0.280743 -0.454368,-0.668716 -0.454368,-1.09675 0,-0.428031 0.173735,-0.816003 0.454368,-1.09675l0.00011066 -0.00011066 0.00011066 -0.00011066c0.280743,-0.280633 0.668716,-0.454368 1.09675,-0.454368zm1.01862 0.532494c-0.260493,-0.260603 -0.6208,-0.421834 -1.01862,-0.421834 -0.397821,0 -0.758128,0.161231 -1.01862,0.421834l-0.000221319 0.000221319c-0.260603,0.260493 -0.421834,0.6208 -0.421834,1.01862 0,0.397821 0.161231,0.758128 0.421834,1.01862l0.000221319 0.000221319c0.260493,0.260603 0.6208,0.421834 1.01862,0.421834 0.397821,0 0.758128,-0.161231 1.01862,-0.421834l0.000221319 -0.000221319c0.260603,-0.260493 0.421834,-0.6208 0.421834,-1.01862 0,-0.397821 -0.161231,-0.758128 -0.421834,-1.01862l-0.000221319 -0.000221319z"/>
  <path class="fil1" d="M0.460454 1.26982l0.000663957 -0.000221319m-0.000663957 0.586164l0.000663957 -0.000221319m-0.000663957 -0.198745l0.000663957 -0.000221319m-0.000663957 -0.198745l0.000663957 -0.000221319m-0.000663957 -0.386755l0.000663957 -0.000221319m0.997485 0.683987l-0.718402 -0.301547 -0.17285 0.0450384 0.898887 0.37746 1.06554 -0.46311 -0.17783 -0.0399481 -0.879301 0.381997c-0.00542232,0.00232385 -0.0109553,0.00221319 -0.0160456,0.00011066zm0.981661 -0.0327552l0.201068 0.0451491c0.0140538,0.00309847 0.0234598,0.020472 0.021136,0.0387308 -0.00165989,0.0135005 -0.00940606,0.0236811 -0.0190334,0.0268903l-1.16879 0.507817c-0.00542232,0.00232385 -0.0109553,0.00221319 -0.0160456,0.00011066l-1.00092 -0.420174c-0.0135005,-0.00553298 -0.0210253,-0.0244558 -0.0167096,-0.0420506 0.00298781,-0.0122832 0.0109553,-0.0206933 0.02014,-0.0227959l0.194982 -0.0509034 -0.198413 -0.083216c-0.0135005,-0.00553298 -0.0210253,-0.0244558 -0.0167096,-0.0420506 0.00298781,-0.0122832 0.0109553,-0.0206933 0.02014,-0.0227959l0.194982 -0.0507927 -0.198413 -0.0833266c-0.0135005,-0.00553298 -0.0210253,-0.0244558 -0.0167096,-0.0420506 0.00298781,-0.0122832 0.0109553,-0.0206933 0.02014,-0.0227959l0.178826 -0.0465877 -0.182256 -0.0765764c-0.0135005,-0.00553298 -0.0210253,-0.0244558 -0.0167096,-0.0420506 0.00298781,-0.0122832 0.0109553,-0.0206933 0.02014,-0.0227959l0.194982 -0.0507927 -0.198413 -0.0833266c-0.0135005,-0.00553298 -0.0210253,-0.0244558 -0.0167096,-0.0420506 0.00298781,-0.0122832 0.0109553,-0.0206933 0.02014,-0.0227959l1.18682 -0.309293c0.00320913,-0.000774617 0.00630759,-0.000774617 0.00940606,-0.00011066l0 -0.000221319 0.983985 0.221098c0.0140538,0.00309847 0.0234598,0.020472 0.021136,0.0387308 -0.00165989,0.0135005 -0.00940606,0.0236811 -0.0190334,0.0268903l-0.20306 0.0881956 0.200958 0.0451491c0.0140538,0.00309847 0.0234598,0.020472 0.021136,0.0387308 -0.00165989,0.0135005 -0.00940606,0.0236811 -0.0190334,0.0268903l-0.18624 0.0808921 0.184137 0.0413867c0.0140538,0.00309847 0.0234598,0.020472 0.021136,0.0387308 -0.00165989,0.0135005 -0.00940606,0.0236811 -0.0190334,0.0268903l-0.20306 0.0881956 0.200958 0.0451491c0.0140538,0.00309847 0.0234598,0.020472 0.021136,0.0387308 -0.00165989,0.0135005 -0.00940606,0.0236811 -0.0190334,0.0268903l-0.203171 0.0883063zm-1.68402 0.124935l-0.188896 0.0492435 0.898887 0.37746 1.06554 -0.462999 -0.194761 -0.0438212 -0.86237 0.374804c-0.00542232,0.00232385 -0.0109553,0.00221319 -0.0160456,0.00011066l-0.702356 -0.294797zm0.00011066 -0.198966l-0.189006 0.0492435 0.898887 0.37746 1.06554 -0.46311 -0.19465 -0.0437105 -0.86248 0.374804c-0.00542232,0.00232385 -0.0109553,0.00221319 -0.0160456,0.00011066l-0.702245 -0.294797zm0.00320913 -0.456028l0.706672 0.296789 0.867017 -0.376796 0.198523 -0.0862038 -0.878747 -0.197417 -1.08568 0.282956 0.192216 0.0806708zm0.699036 0.363849l-0.702245 -0.294797 -0.189006 0.0492435 0.898887 0.37746 1.06554 -0.462999 -0.19465 -0.0437105 -0.86248 0.374693c-0.00542232,0.00232385 -0.0109553,0.00221319 -0.0160456,0.00011066z"/>
 </g>
</svg>
