<?xml version="1.0" encoding="UTF-8"?>
<!DOCTYPE svg PUBLIC "-//W3C//DTD SVG 1.1//EN" "http://www.w3.org/Graphics/SVG/1.1/DTD/svg11.dtd">
<!-- Creator: CorelDRAW -->
<svg xmlns="http://www.w3.org/2000/svg" xml:space="preserve" width="33px" height="33px" style="shape-rendering:geometricPrecision; text-rendering:geometricPrecision; image-rendering:optimizeQuality; fill-rule:evenodd; clip-rule:evenodd"
viewBox="0 0 9.14518 9.14518"
 xmlns:xlink="http://www.w3.org/1999/xlink">
 <defs>
  <style type="text/css">
   <![CDATA[
    .fil0 {fill:white;fill-rule:nonzero}
   ]]>
  </style>
 </defs>
 <g id="Layer_x0020_1">
  <metadata id="CorelCorpID_0Corel-Layer"/>
  <path class="fil0" d="M4.57259 0c1.26163,0 2.40518,0.512088 3.23268,1.33926l0.000326171 0.000326171 0.000326171 0.000326171c0.827169,0.827495 1.33926,1.97105 1.33926,3.23268 0,1.26163 -0.512088,2.40518 -1.33926,3.23268l-0.000326171 0.000326171 -0.000326171 0.000326171c-0.827495,0.827169 -1.97105,1.33926 -3.23268,1.33926 -1.26163,0 -2.40518,-0.512088 -3.23268,-1.33926l-0.000326171 -0.000326171 -0.000326171 -0.000326171c-0.827169,-0.827495 -1.33926,-1.97105 -1.33926,-3.23268 0,-1.26163 0.512088,-2.40518 1.33926,-3.23268l0.000326171 -0.000326171 0.000326171 -0.000326171c0.827495,-0.827169 1.97105,-1.33926 3.23268,-1.33926zm3.0024 1.56953c-0.767806,-0.768132 -1.82982,-1.24336 -3.0024,-1.24336 -1.17258,0 -2.2346,0.475231 -3.0024,1.24336l-0.000652342 0.000652342c-0.768132,0.767806 -1.24336,1.82982 -1.24336,3.0024 0,1.17258 0.475231,2.2346 1.24336,3.0024l0.000652342 0.000652342c0.767806,0.768132 1.82982,1.24336 3.0024,1.24336 1.17258,0 2.2346,-0.475231 3.0024,-1.24336l0.000652342 -0.000652342c0.768132,-0.767806 1.24336,-1.82982 1.24336,-3.0024 0,-1.17258 -0.475231,-2.2346 -1.24336,-3.0024l-0.000652342 -0.000652342z"/>
  <path class="fil0" d="M3.17266 3.94667l0 -0.979491c0,-0.185917 0.0759978,-0.3552 0.198638,-0.47784 0.12264,-0.12264 0.291923,-0.198638 0.47784,-0.198638l2.20361 0c0.185917,0 0.3552,0.0759978 0.47784,0.198638 0.12264,0.12264 0.198638,0.291923 0.198638,0.47784l0 3.21082c0,0.185917 -0.0759978,0.3552 -0.198638,0.47784 -0.12264,0.12264 -0.291923,0.198638 -0.47784,0.198638l-2.20361 0c-0.185917,0 -0.3552,-0.0759978 -0.47784,-0.198638 -0.12264,-0.12264 -0.198638,-0.291923 -0.198638,-0.47784l0 -0.979491 -0.632119 0 -0.124271 0 0 -0.124271 0 -1.0033 0 -0.124271 0.124271 0 0.632119 0zm1.20716 -1.40743l0.906429 0.253435 0.000652342 0c0.148408,0.0414237 0.291597,0.109267 0.39271,0.21038 0.0932848,0.0932848 0.151343,0.213316 0.150691,0.362376l0 0.000652342 -0.0205488 2.48183c-0.000978512,0.151017 -0.0609939,0.274636 -0.15591,0.369551 -0.101439,0.101439 -0.243323,0.169283 -0.393362,0.203531l-0.804337 0.184939 1.59661 0c0.117748,0 0.225058,-0.0482733 0.30236,-0.125576 0.0773025,-0.0773025 0.125576,-0.184613 0.125576,-0.30236l0 -3.21082c0,-0.117748 -0.0482733,-0.225058 -0.125576,-0.30236 -0.0773025,-0.0773025 -0.184613,-0.125576 -0.30236,-0.125576l-1.67293 0zm-0.754759 4.00309l1.57997 -0.363354c0.107636,-0.0244628 0.206792,-0.0704529 0.273331,-0.136992 0.0508826,-0.0508826 0.0831735,-0.116769 0.0834997,-0.195376l0 -0.000652342 0.0205488 -2.48183c0,-0.0753454 -0.0300077,-0.137318 -0.078281,-0.185591 -0.0678435,-0.0678435 -0.172871,-0.116117 -0.284421,-0.147103l0 -0.000326171 -1.57443 -0.440004c-0.0365311,0.0198964 -0.0694744,0.0446854 -0.0985036,0.0737146 -0.0773025,0.0773025 -0.125576,0.184613 -0.125576,0.30236l0 0.979491 0.363028 0 0 -0.377053 0 -0.24528 0.197659 0.145146 1.36763 1.00298 0.136666 0.100134 -0.136666 0.100134 -1.36763 1.00298 -0.197659 0.14482 0 -0.244954 0 -0.377053 -0.363028 0 0 0.979491c0,0.117748 0.0482733,0.225058 0.125576,0.30236 0.0234843,0.0234843 0.0499041,0.0443592 0.078281,0.0619724zm-0.960247 -1.59237l0.632119 0 0.61157 0 0.124271 0 0 0.124271 0 0.25637 1.03331 -0.758021 -1.03331 -0.758021 0 0.25637 0 0.124271 -0.124271 0 -0.61157 0 -0.632119 0 0 0.754759z"/>
 </g>
</svg>
