<?xml version="1.0" encoding="UTF-8"?>
<!DOCTYPE svg PUBLIC "-//W3C//DTD SVG 1.1//EN" "http://www.w3.org/Graphics/SVG/1.1/DTD/svg11.dtd">
<!-- Creator: CorelDRAW -->
<svg xmlns="http://www.w3.org/2000/svg" xml:space="preserve" width="33px" height="33px" style="shape-rendering:geometricPrecision; text-rendering:geometricPrecision; image-rendering:optimizeQuality; fill-rule:evenodd; clip-rule:evenodd"
viewBox="0 0 1.87967 1.87967"
 xmlns:xlink="http://www.w3.org/1999/xlink">
 <defs>
  <style type="text/css">
   <![CDATA[
    .fil0 {fill:#FEFEFE;fill-rule:nonzero}
    .fil1 {fill:white;fill-rule:nonzero}
   ]]>
  </style>
 </defs>
 <g id="Layer_x0020_1">
  <metadata id="CorelCorpID_0Corel-Layer"/>
  <path class="fil0" d="M0.939833 0c0.25931,0 0.494352,0.105253 0.664433,0.275266l6.70399e-005 6.70399e-005 6.70399e-005 6.70399e-005c0.170013,0.17008 0.275266,0.405122 0.275266,0.664433 0,0.25931 -0.105253,0.494352 -0.275266,0.664433l-6.70399e-005 6.70399e-005 -6.70399e-005 6.70399e-005c-0.17008,0.170013 -0.405122,0.275266 -0.664433,0.275266 -0.25931,0 -0.494352,-0.105253 -0.664433,-0.275266l-6.70399e-005 -6.70399e-005 -6.70399e-005 -6.70399e-005c-0.170013,-0.17008 -0.275266,-0.405122 -0.275266,-0.664433 0,-0.25931 0.105253,-0.494352 0.275266,-0.664433l6.70399e-005 -6.70399e-005 6.70399e-005 -6.70399e-005c0.17008,-0.170013 0.405122,-0.275266 0.664433,-0.275266zm0.617102 0.322596c-0.157812,-0.157879 -0.376094,-0.255556 -0.617102,-0.255556 -0.241009,0 -0.459291,0.0976772 -0.617102,0.255556l-0.00013408 0.00013408c-0.157879,0.157812 -0.255556,0.376094 -0.255556,0.617102 0,0.241009 0.0976772,0.459291 0.255556,0.617102l0.00013408 0.00013408c0.157812,0.157879 0.376094,0.255556 0.617102,0.255556 0.241009,0 0.459291,-0.0976772 0.617102,-0.255556l0.00013408 -0.00013408c0.157879,-0.157812 0.255556,-0.376094 0.255556,-0.617102 0,-0.241009 -0.0976772,-0.459291 -0.255556,-0.617102l-0.00013408 -0.00013408z"/>
  <g id="_7445888">
   <path id="_7446608" class="fil1" d="M0.683807 0.424966l0.512051 0c0.0382128,0 0.0728724,0.0154862 0.0977442,0.040358 0.0243355,0.0243355 0.0394865,0.0578555 0.0394865,0.0944593l0 0.760166c0,0.0366038 -0.015151,0.0701238 -0.0394865,0.0944593 -0.0248718,0.0248718 -0.0595315,0.040358 -0.0977442,0.040358l-0.512051 0c-0.0382128,0 -0.0728724,-0.0154862 -0.0977442,-0.040358 -0.0243355,-0.0243355 -0.0394865,-0.0578555 -0.0394865,-0.0944593l0 -0.760166c0,-0.0366038 0.015151,-0.0701238 0.0394865,-0.0944593 0.0248718,-0.0248718 0.0595315,-0.040358 0.0977442,-0.040358zm0.512051 0.0426374l-0.512051 0c-0.0242014,0 -0.0464587,0.010123 -0.0626153,0.0262796 -0.0166929,0.0166929 -0.0271512,0.0400899 -0.0271512,0.0659002l0 0.760166c0,0.0258104 0.0104582,0.0492073 0.0271512,0.0659002 0.0161566,0.0161566 0.0384139,0.0262796 0.0626153,0.0262796l0.512051 0c0.0242014,0 0.0464587,-0.010123 0.0626153,-0.0262796 0.0166929,-0.0166929 0.0271512,-0.0400899 0.0271512,-0.0659002l0 -0.760166c0,-0.0258104 -0.0104582,-0.0492073 -0.0271512,-0.0659002 -0.0161566,-0.0161566 -0.0384139,-0.0262796 -0.0626153,-0.0262796z"/>
   <path id="_7446560" class="fil1" d="M0.684075 0.511582l0.0968727 0c0.0113968,0 0.0219221,0.00475983 0.0292964,0.0122683l0 6.70399e-005c0.00750847,0.00750847 0.0122013,0.0180337 0.0122013,0.0294305l0 0.115175c0,0.0115309 -0.00475983,0.0220561 -0.0123353,0.0296316 -0.00737439,0.00737439 -0.0178326,0.0121342 -0.0291624,0.0121342l-0.0968727 0c-0.0112627,0 -0.0216539,-0.00469279 -0.0290953,-0.0120001l-0.00026816 -0.00020112c-0.00737439,-0.00750847 -0.0121342,-0.0181008 -0.0121342,-0.0295646l0 -0.115175c0,-0.0115309 0.00482687,-0.0221232 0.0122683,-0.0295646 0.00744143,-0.00744143 0.0178997,-0.0122013 0.0292294,-0.0122013zm0.0968727 0.0407603l-0.0968727 0 -0.00107264 0.00040224 -0.00020112 0.000603359 0 0.115175 0.00026816 0.000603359 0.0010056 0.00040224 0.0968727 0 0.0010056 -0.0003352 0.00026816 -0.000670399 0 -0.115175 -0.00013408 -0.000469279 -0.00026816 -0.00020112 -0.000871519 -0.0003352z"/>
   <path id="_7446512" class="fil1" d="M0.891363 0.511582l0.0968056 0c0.0112627,0 0.0216539,0.00469279 0.0290953,0.0120001l0.00013408 0.00013408c0.00757551,0.00757551 0.0123353,0.0181008 0.0123353,0.0296316l0 0.115175c0,0.0115309 -0.00475983,0.0220561 -0.0123353,0.0296316l-0.00013408 0.00013408c-0.00744143,0.00730735 -0.0178326,0.0120001 -0.0290953,0.0120001l-0.0968056 0c-0.0112627,0 -0.0216539,-0.00469279 -0.0290953,-0.0120001l-0.00026816 -0.00020112c-0.00737439,-0.00750847 -0.0121342,-0.0181008 -0.0121342,-0.0295646l0 -0.115175c0,-0.0115309 0.00482687,-0.0221232 0.0122683,-0.0295646 0.00744143,-0.00744143 0.0178997,-0.0122013 0.0292294,-0.0122013zm0.0968056 0.0407603l-0.0968056 0 -0.00107264 0.00040224 -0.00020112 0.000603359 0 0.115175 0.00026816 0.000603359 0.0010056 0.00040224 0.0968056 0 0.00113968 -0.00040224 0.00020112 -0.000603359 0 -0.115175 -0.00020112 -0.000603359 -0.00113968 -0.00040224z"/>
   <path id="_7446464" class="fil1" d="M1.09872 0.511582l0.0968727 0c0.0113968,0 0.0219221,0.00475983 0.0292964,0.0122683l0 6.70399e-005c0.00750847,0.00750847 0.0122013,0.0180337 0.0122013,0.0294305l0 0.115175c0,0.0115309 -0.00475983,0.0220561 -0.0123353,0.0296316 -0.00737439,0.00737439 -0.0178326,0.0121342 -0.0291624,0.0121342l-0.0968727 0c-0.0112627,0 -0.0216539,-0.00469279 -0.0290953,-0.0120001l-0.00026816 -0.00020112c-0.00737439,-0.00750847 -0.0121342,-0.0181008 -0.0121342,-0.0295646l0 -0.115175c0,-0.0115309 0.00482687,-0.0221232 0.0122683,-0.0295646 0.00744143,-0.00744143 0.0178997,-0.0122013 0.0292294,-0.0122013zm0.0968727 0.0407603l-0.0968727 0 -0.00107264 0.00040224 -0.00020112 0.000603359 0 0.115175 0.00026816 0.000603359 0.0010056 0.00040224 0.0968727 0 0.0010056 -0.0003352 0.00026816 -0.000670399 0 -0.115175 -0.00013408 -0.000469279 -0.00026816 -0.00020112 -0.000871519 -0.0003352z"/>
   <path id="_7446416" class="fil1" d="M0.684075 0.730936l0.0968727 0c0.0113968,0 0.0219221,0.00475983 0.0292964,0.0122683l0 6.70399e-005c0.00750847,0.00750847 0.0122013,0.0180337 0.0122013,0.0294305l0 0.115175c0,0.0115309 -0.00475983,0.0220561 -0.0123353,0.0296316 -0.00737439,0.00737439 -0.0178326,0.0121342 -0.0291624,0.0121342l-0.0968727 0c-0.0112627,0 -0.0216539,-0.00469279 -0.0290953,-0.0120001l-0.00026816 -0.00020112c-0.00737439,-0.00750847 -0.0121342,-0.0181008 -0.0121342,-0.0295646l0 -0.115175c0,-0.0115309 0.00482687,-0.0221232 0.0122683,-0.0295646 0.00744143,-0.00744143 0.0178997,-0.0122013 0.0292294,-0.0122013zm0.0968727 0.0407603l-0.0968727 0 -0.00107264 0.00040224 -0.00020112 0.000603359 0 0.115175 0.00026816 0.000603359 0.0010056 0.00040224 0.0968727 0 0.0010056 -0.0003352 0.00026816 -0.000670399 0 -0.115175 -0.00013408 -0.000469279 -0.00026816 -0.00020112 -0.000871519 -0.0003352z"/>
   <path id="_7446368" class="fil1" d="M0.684075 0.950157l0.0968727 0c0.0113968,0 0.0219221,0.00475983 0.0292964,0.0122683l0 6.70399e-005c0.00750847,0.00750847 0.0122013,0.0180337 0.0122013,0.0294305l0 0.115175c0,0.0115309 -0.00475983,0.0220561 -0.0123353,0.0296316 -0.00737439,0.00737439 -0.0178326,0.0121342 -0.0291624,0.0121342l-0.0968727 0c-0.0112627,0 -0.0216539,-0.00469279 -0.0290953,-0.0120001l-0.00026816 -0.00020112c-0.00737439,-0.00750847 -0.0121342,-0.0181008 -0.0121342,-0.0295646l0 -0.115175c0,-0.0115309 0.00482687,-0.0221232 0.0122683,-0.0295646 0.00744143,-0.00744143 0.0178997,-0.0122013 0.0292294,-0.0122013zm0.0968727 0.0407603l-0.0968727 0 -0.00107264 0.00040224 -0.00020112 0.000603359 0 0.115175 0.00026816 0.000603359 0.0010056 0.00040224 0.0968727 0 0.0010056 -0.0003352 0.00026816 -0.000670399 0 -0.115175 -0.00013408 -0.000469279 -0.00026816 -0.00020112 -0.000871519 -0.0003352z"/>
   <path id="_7446320" class="fil1" d="M0.684075 1.16938l0.0968727 0c0.0113968,0 0.0219221,0.00475983 0.0292964,0.0122683l0 6.70399e-005c0.00750847,0.00750847 0.0122013,0.0180337 0.0122013,0.0294305l0 0.115175c0,0.0115309 -0.00475983,0.0220561 -0.0123353,0.0296316 -0.00737439,0.00737439 -0.0178326,0.0121342 -0.0291624,0.0121342l-0.0968727 0c-0.0112627,0 -0.0216539,-0.00469279 -0.0290953,-0.0120001l-0.00026816 -0.00020112c-0.00737439,-0.00750847 -0.0121342,-0.0181008 -0.0121342,-0.0295646l0 -0.115175c0,-0.0115309 0.00482687,-0.0221232 0.0122683,-0.0295646 0.00744143,-0.00744143 0.0178997,-0.0122013 0.0292294,-0.0122013zm0.0968727 0.0407603l-0.0968727 0 -0.00107264 0.00040224 -0.00020112 0.000603359 0 0.115175 0.00026816 0.000603359 0.0010056 0.00040224 0.0968727 0 0.0010056 -0.0003352 0.00026816 -0.000670399 0 -0.115175 -0.00013408 -0.000469279 -0.00026816 -0.00020112 -0.000871519 -0.0003352z"/>
   <path id="_7446272" class="fil1" d="M0.891363 0.730936l0.0968727 0c0.0113968,0 0.0219221,0.00475983 0.0292964,0.0122683l0 6.70399e-005c0.00750847,0.00750847 0.0122013,0.0180337 0.0122013,0.0294305l0 0.115175c0,0.0115309 -0.00475983,0.0220561 -0.0123353,0.0296316 -0.00737439,0.00737439 -0.0178326,0.0121342 -0.0291624,0.0121342l-0.0968727 0c-0.0112627,0 -0.0216539,-0.00469279 -0.0290953,-0.0120001l-0.00026816 -0.00020112c-0.00737439,-0.00750847 -0.0121342,-0.0181008 -0.0121342,-0.0295646l0 -0.115175c0,-0.0115309 0.00482687,-0.0221232 0.0122683,-0.0295646 0.00744143,-0.00744143 0.0178997,-0.0122013 0.0292294,-0.0122013zm0.0968727 0.0407603l-0.0968727 0 -0.00107264 0.00040224 -0.00020112 0.000603359 0 0.115175 0.00026816 0.000603359 0.0010056 0.00040224 0.0968727 0 0.0010056 -0.0003352 0.00026816 -0.000670399 0 -0.115175 -0.00013408 -0.000469279 -0.00026816 -0.00020112 -0.000871519 -0.0003352z"/>
   <path id="_7446224" class="fil1" d="M0.891363 0.950157l0.0968727 0c0.0113968,0 0.0219221,0.00475983 0.0292964,0.0122683l0 6.70399e-005c0.00750847,0.00750847 0.0122013,0.0180337 0.0122013,0.0294305l0 0.115175c0,0.0115309 -0.00475983,0.0220561 -0.0123353,0.0296316 -0.00737439,0.00737439 -0.0178326,0.0121342 -0.0291624,0.0121342l-0.0968727 0c-0.0112627,0 -0.0216539,-0.00469279 -0.0290953,-0.0120001l-0.00026816 -0.00020112c-0.00737439,-0.00750847 -0.0121342,-0.0181008 -0.0121342,-0.0295646l0 -0.115175c0,-0.0115309 0.00482687,-0.0221232 0.0122683,-0.0295646 0.00744143,-0.00744143 0.0178997,-0.0122013 0.0292294,-0.0122013zm0.0968727 0.0407603l-0.0968727 0 -0.00107264 0.00040224 -0.00020112 0.000603359 0 0.115175 0.00026816 0.000603359 0.0010056 0.00040224 0.0968727 0 0.0010056 -0.0003352 0.00026816 -0.000670399 0 -0.115175 -0.00013408 -0.000469279 -0.00026816 -0.00020112 -0.000871519 -0.0003352z"/>
   <path id="_7446176" class="fil1" d="M0.891363 1.16938l0.0968727 0c0.0113968,0 0.0219221,0.00475983 0.0292964,0.0122683l0 6.70399e-005c0.00750847,0.00750847 0.0122013,0.0180337 0.0122013,0.0294305l0 0.115175c0,0.0115309 -0.00475983,0.0220561 -0.0123353,0.0296316 -0.00737439,0.00737439 -0.0178326,0.0121342 -0.0291624,0.0121342l-0.0968727 0c-0.0112627,0 -0.0216539,-0.00469279 -0.0290953,-0.0120001l-0.00026816 -0.00020112c-0.00737439,-0.00750847 -0.0121342,-0.0181008 -0.0121342,-0.0295646l0 -0.115175c0,-0.0115309 0.00482687,-0.0221232 0.0122683,-0.0295646 0.00744143,-0.00744143 0.0178997,-0.0122013 0.0292294,-0.0122013zm0.0968727 0.0407603l-0.0968727 0 -0.00107264 0.00040224 -0.00020112 0.000603359 0 0.115175 0.00026816 0.000603359 0.0010056 0.00040224 0.0968727 0 0.0010056 -0.0003352 0.00026816 -0.000670399 0 -0.115175 -0.00013408 -0.000469279 -0.00026816 -0.00020112 -0.000871519 -0.0003352z"/>
   <path id="_7445960" class="fil1" d="M1.09872 0.730869l0.0968727 0c0.0113968,0 0.0219221,0.00475983 0.0292964,0.0122683l0 6.70399e-005c0.00750847,0.00750847 0.0122013,0.0180337 0.0122013,0.0294305l0 0.115175c0,0.0115309 -0.00475983,0.0220561 -0.0123353,0.0296316 -0.00737439,0.00737439 -0.0178326,0.0121342 -0.0291624,0.0121342l-0.0968727 0c-0.0112627,0 -0.0216539,-0.00469279 -0.0290953,-0.0120001l-0.00026816 -0.00020112c-0.00737439,-0.00750847 -0.0121342,-0.0181008 -0.0121342,-0.0295646l0 -0.115175c0,-0.0115309 0.00482687,-0.0221232 0.0122683,-0.0295646 0.00744143,-0.00744143 0.0178997,-0.0122013 0.0292294,-0.0122013zm0.0968727 0.0407603l-0.0968727 0 -0.00107264 0.00040224 -0.00020112 0.000603359 0 0.115175 0.00026816 0.000603359 0.0010056 0.00040224 0.0968727 0 0.0010056 -0.0003352 0.00026816 -0.000670399 0 -0.115175 -0.00013408 -0.000469279 -0.00026816 -0.00020112 -0.000871519 -0.0003352z"/>
   <path id="_7446032" class="fil1" d="M1.09872 0.950157l0.0968727 0c0.0113968,0 0.0219221,0.00475983 0.0292964,0.0122683l0 6.70399e-005c0.00750847,0.00750847 0.0122013,0.0180337 0.0122013,0.0294305l0 0.115175c0,0.0115309 -0.00475983,0.0220561 -0.0123353,0.0296316 -0.00737439,0.00737439 -0.0178326,0.0121342 -0.0291624,0.0121342l-0.0968727 0c-0.0112627,0 -0.0216539,-0.00469279 -0.0290953,-0.0120001l-0.00026816 -0.00020112c-0.00737439,-0.00750847 -0.0121342,-0.0181008 -0.0121342,-0.0295646l0 -0.115175c0,-0.0115309 0.00482687,-0.0221232 0.0122683,-0.0295646 0.00744143,-0.00744143 0.0178997,-0.0122013 0.0292294,-0.0122013zm0.0968727 0.0407603l-0.0968727 0 -0.00107264 0.00040224 -0.00020112 0.000603359 0 0.115175 0.00026816 0.000603359 0.0010056 0.00040224 0.0968727 0 0.0010056 -0.0003352 0.00026816 -0.000670399 0 -0.115175 -0.00013408 -0.000469279 -0.00026816 -0.00020112 -0.000871519 -0.0003352z"/>
   <path id="_7445984" class="fil1" d="M1.09872 1.16938l0.0968727 0c0.0113968,0 0.0219221,0.00475983 0.0292964,0.0122683l0 6.70399e-005c0.00750847,0.00750847 0.0122013,0.0180337 0.0122013,0.0294305l0 0.115175c0,0.0115309 -0.00475983,0.0220561 -0.0123353,0.0296316 -0.00737439,0.00737439 -0.0178326,0.0121342 -0.0291624,0.0121342l-0.0968727 0c-0.0112627,0 -0.0216539,-0.00469279 -0.0290953,-0.0120001l-0.00026816 -0.00020112c-0.00737439,-0.00750847 -0.0121342,-0.0181008 -0.0121342,-0.0295646l0 -0.115175c0,-0.0115309 0.00482687,-0.0221232 0.0122683,-0.0295646 0.00744143,-0.00744143 0.0178997,-0.0122013 0.0292294,-0.0122013zm0.0968727 0.0407603l-0.0968727 0 -0.00107264 0.00040224 -0.00020112 0.000603359 0 0.115175 0.00026816 0.000603359 0.0010056 0.00040224 0.0968727 0 0.0010056 -0.0003352 0.00026816 -0.000670399 0 -0.115175 -0.00013408 -0.000469279 -0.00026816 -0.00020112 -0.000871519 -0.0003352z"/>
  </g>
 </g>
</svg>
