<?xml version="1.0" encoding="UTF-8"?>
<!DOCTYPE svg PUBLIC "-//W3C//DTD SVG 1.1//EN" "http://www.w3.org/Graphics/SVG/1.1/DTD/svg11.dtd">
<!-- Creator: CorelDRAW -->
<svg xmlns="http://www.w3.org/2000/svg" xml:space="preserve" width="2.8038mm" height="2.8038mm" style="shape-rendering:geometricPrecision; text-rendering:geometricPrecision; image-rendering:optimizeQuality; fill-rule:evenodd; clip-rule:evenodd"
viewBox="0 0 0.11455 0.11455"
 xmlns:xlink="http://www.w3.org/1999/xlink">
 <defs>
  <style type="text/css">
   <![CDATA[
    .fil1 {fill:#FEFEFE;fill-rule:nonzero}
    .fil0 {fill:white;fill-rule:nonzero}
   ]]>
  </style>
 </defs>
 <g id="Layer_x0020_1">
  <metadata id="CorelCorpID_0Corel-Layer"/>
  <path class="fil0" d="M0.0659159 0.0683468l-0.0172818 0 0 -0.0479273 0.0172818 0 0 0.0479273zm0 0.0263108l-0.0172818 0 0 -0.014426 0.0172818 0 0 0.014426z"/>
  <path class="fil1" d="M0.057275 0c0.0158028,0 0.0301267,0.00641428 0.0404917,0.0167752l4.08553e-006 4.08553e-006 4.08553e-006 4.08553e-006c0.0103609,0.010365 0.0167752,0.0246888 0.0167752,0.0404917 0,0.0158028 -0.00641428,0.0301267 -0.0167752,0.0404917l-4.08553e-006 4.08553e-006 -4.08553e-006 4.08553e-006c-0.010365,0.0103609 -0.0246888,0.0167752 -0.0404917,0.0167752 -0.0158028,0 -0.0301267,-0.00641428 -0.0404917,-0.0167752l-4.08553e-006 -4.08553e-006 -4.08553e-006 -4.08553e-006c-0.0103609,-0.010365 -0.0167752,-0.0246888 -0.0167752,-0.0404917 0,-0.0158028 0.00641428,-0.0301267 0.0167752,-0.0404917l4.08553e-006 -4.08553e-006 4.08553e-006 -4.08553e-006c0.010365,-0.0103609 0.0246888,-0.0167752 0.0404917,-0.0167752zm0.0376073 0.0196596c-0.00961733,-0.00962142 -0.0229198,-0.015574 -0.0376073,-0.015574 -0.0146875,0 -0.02799,0.00595261 -0.0376073,0.015574l-8.17106e-006 8.17106e-006c-0.00962142,0.00961733 -0.015574,0.0229198 -0.015574,0.0376073 0,0.0146875 0.00595261,0.02799 0.015574,0.0376073l8.17106e-006 8.17106e-006c0.00961733,0.00962142 0.0229198,0.015574 0.0376073,0.015574 0.0146875,0 0.02799,-0.00595261 0.0376073,-0.015574l8.17106e-006 -8.17106e-006c0.00962142,-0.00961733 0.015574,-0.0229198 0.015574,-0.0376073 0,-0.0146875 -0.00595261,-0.02799 -0.015574,-0.0376073l-8.17106e-006 -8.17106e-006z"/>
 </g>
</svg>
