<?xml version="1.0" encoding="UTF-8"?>
<!DOCTYPE svg PUBLIC "-//W3C//DTD SVG 1.1//EN" "http://www.w3.org/Graphics/SVG/1.1/DTD/svg11.dtd">
<!-- Creator: CorelDRAW -->
<svg xmlns="http://www.w3.org/2000/svg" xml:space="preserve" width="33px" height="33px" style="shape-rendering:geometricPrecision; text-rendering:geometricPrecision; image-rendering:optimizeQuality; fill-rule:evenodd; clip-rule:evenodd"
viewBox="0 0 1.5702 1.5702"
 xmlns:xlink="http://www.w3.org/1999/xlink">
 <defs>
  <style type="text/css">
   <![CDATA[
    .str0 {stroke:white;stroke-width:0.0383617}
    .fil1 {fill:none}
    .fil0 {fill:#FEFEFE;fill-rule:nonzero}
   ]]>
  </style>
 </defs>
 <g id="Layer_x0020_1">
  <metadata id="CorelCorpID_0Corel-Layer"/>
  <path class="fil0" d="M0.785098 0c0.216617,0 0.412962,0.0879238 0.55504,0.229946l5.60024e-005 5.60024e-005 5.60024e-005 5.60024e-005c0.142022,0.142078 0.229946,0.338423 0.229946,0.55504 0,0.216617 -0.0879238,0.412962 -0.229946,0.55504l-5.60024e-005 5.60024e-005 -5.60024e-005 5.60024e-005c-0.142078,0.142022 -0.338423,0.229946 -0.55504,0.229946 -0.216617,0 -0.412962,-0.0879238 -0.55504,-0.229946l-5.60024e-005 -5.60024e-005 -5.60024e-005 -5.60024e-005c-0.142022,-0.142078 -0.229946,-0.338423 -0.229946,-0.55504 0,-0.216617 0.0879238,-0.412962 0.229946,-0.55504l5.60024e-005 -5.60024e-005 5.60024e-005 -5.60024e-005c0.142078,-0.142022 0.338423,-0.229946 0.55504,-0.229946zm0.515502 0.269484c-0.13183,-0.131886 -0.314174,-0.213481 -0.515502,-0.213481 -0.201329,0 -0.383673,0.0815956 -0.515502,0.213481l-0.000112005 0.000112005c-0.131886,0.13183 -0.213481,0.314174 -0.213481,0.515502 0,0.201329 0.0815956,0.383673 0.213481,0.515502l0.000112005 0.000112005c0.13183,0.131886 0.314174,0.213481 0.515502,0.213481 0.201329,0 0.383673,-0.0815956 0.515502,-0.213481l0.000112005 -0.000112005c0.131886,-0.13183 0.213481,-0.314174 0.213481,-0.515502 0,-0.201329 -0.0815956,-0.383673 -0.213481,-0.515502l-0.000112005 -0.000112005z"/>
  <path class="fil1 str0" d="M0.834996 0.464372c0.023297,0.00364016 0.04581,0.00974443 0.0672029,0.0179768l0.0393137 -0.068043 0.0864678 0.0498982 -0.0393137 0.068155c0.0180888,0.0145606 0.0346095,0.0310814 0.0491701,0.0491141l0.068099 -0.0392577 0.0499542 0.0864678 -0.068043 0.0393137c0.00828836,0.0213369 0.0143926,0.0438499 0.0179768,0.0671469l0.0785714 0 0 0.0998524 -0.0785714 0c-0.00364016,0.023297 -0.00968842,0.04581 -0.0179768,0.0671469l0.068043 0.0393137 -0.0499542 0.0864678 -0.068099 -0.0392577c-0.0145606,0.0180888 -0.0310814,0.0346095 -0.0491141,0.0491701l0.0392577 0.068099 -0.0864678 0.0498982 -0.0392577 -0.067987c-0.0213929,0.00828836 -0.0439059,0.0143926 -0.0672589,0.0179768l0 0.0785714 -0.0998524 0 0 -0.0785714c-0.023297,-0.00364016 -0.04581,-0.00974443 -0.0671469,-0.0180328l-0.0393137 0.068099 -0.0864678 -0.0499542 0.0392577 -0.068155c-0.0180328,-0.0145606 -0.0345535,-0.0310814 -0.0491141,-0.0491141l-0.068155 0.0393137 -0.0498982 -0.0864678 0.068043 -0.0393137c-0.00828836,-0.0213369 -0.0143926,-0.0439059 -0.0179768,-0.0672029l-0.0785714 0 0 -0.0998524 0.0785714 0c0.00364016,-0.023297 0.00974443,-0.04581 0.0180328,-0.0672029l-0.068099 -0.0393137 0.0498982 -0.0864678 0.068211 0.0393137c0.0145606,-0.0180328 0.0310814,-0.0345535 0.0491141,-0.0491141l-0.0393137 -0.068155 0.0864678 -0.0499542 0.0393137 0.068099c0.0213369,-0.00828836 0.0438499,-0.0143366 0.0671469,-0.0179768l0 -0.0785714 0.0998524 0 0 0.0785714z"/>
 </g>
</svg>
